<svg xmlns="http://www.w3.org/2000/svg" viewBox="0 0 707.1 668.33"><defs><style>.cls-1{fill:#848484;}.cls-2{isolation:isolate;}.cls-3{fill:#0092b0;}.cls-4{fill:#00657a;}.cls-5{fill:#00a3c4;}.cls-6{fill:#fff;}.cls-7{fill:#0093a4;}.cls-8{fill:#006672;}.cls-9{fill:#00a4b7;}</style></defs><title>KleinesHaus</title><g id="Ebene_2" data-name="Ebene 2"><g id="Ebene_1-2" data-name="Ebene 1"><polygon class="cls-1" points="707.1 463.54 354.71 668.33 0 463.54 352.39 258.75 707.1 463.54"/><g class="cls-2"><polygon class="cls-3" points="597.47 128.2 596.54 454.26 330.67 608.77 331.6 282.7 597.47 128.2"/><polygon class="cls-4" points="331.6 282.7 330.67 608.77 108.63 480.57 109.55 154.5 331.6 282.7"/><polygon class="cls-5" points="597.47 128.2 331.6 282.7 109.55 154.5 375.42 0 597.47 128.2"/></g><polygon class="cls-6" points="448.56 253.95 448.84 354.13 392.09 386.89 391.81 286.72 448.56 253.95"/><g class="cls-2"><polygon class="cls-7" points="465.06 356.33 465.03 364.48 398.78 402.98 398.8 394.83 465.06 356.33"/><polygon class="cls-8" points="398.8 394.83 398.78 402.98 381.04 392.74 381.06 384.59 398.8 394.83"/><polygon class="cls-9" points="465.06 356.33 398.8 394.83 381.06 384.59 447.32 346.09 465.06 356.33"/></g><g class="cls-2"><polygon class="cls-7" points="451.75 254.62 451.48 352.44 444.43 356.54 444.71 258.72 451.75 254.62"/><polygon class="cls-8" points="444.71 258.72 444.43 356.54 437.34 352.44 437.61 254.62 444.71 258.72"/><polygon class="cls-9" points="451.75 254.62 444.71 258.72 437.61 254.62 444.66 250.53 451.75 254.62"/></g><g class="cls-2"><polygon class="cls-7" points="444.8 258.41 444.77 266.56 392.62 296.87 392.64 288.72 444.8 258.41"/><polygon class="cls-8" points="392.64 288.72 392.62 296.87 385.52 292.77 385.55 284.62 392.64 288.72"/><polygon class="cls-9" points="444.8 258.41 392.64 288.72 385.55 284.62 437.7 254.31 444.8 258.41"/></g><g class="cls-2"><polygon class="cls-7" points="444.96 298.25 444.94 306.4 392.79 336.71 392.81 328.56 444.96 298.25"/><polygon class="cls-8" points="392.81 328.56 392.79 336.71 385.69 332.61 385.71 324.46 392.81 328.56"/><polygon class="cls-9" points="444.96 298.25 392.81 328.56 385.71 324.46 437.87 294.15 444.96 298.25"/></g><g class="cls-2"><polygon class="cls-7" points="399.76 284.62 399.49 382.44 392.43 386.54 392.71 288.72 399.76 284.62"/><polygon class="cls-8" points="392.71 288.72 392.43 386.54 385.34 382.45 385.62 284.63 392.71 288.72"/><polygon class="cls-9" points="399.76 284.62 392.71 288.72 385.62 284.63 392.67 280.53 399.76 284.62"/></g><polygon class="cls-6" points="565.67 189.09 565.95 289.27 509.2 322.04 508.92 221.86 565.67 189.09"/><g class="cls-2"><polygon class="cls-7" points="582.16 291.47 582.14 299.62 515.89 338.12 515.91 329.97 582.16 291.47"/><polygon class="cls-8" points="515.91 329.97 515.89 338.12 498.15 327.88 498.18 319.73 515.91 329.97"/><polygon class="cls-9" points="582.16 291.47 515.91 329.97 498.18 319.73 564.42 281.23 582.16 291.47"/></g><g class="cls-2"><polygon class="cls-7" points="568.87 189.76 568.59 287.58 561.55 291.68 561.82 193.86 568.87 189.76"/><polygon class="cls-8" points="561.82 193.86 561.55 291.68 554.45 287.58 554.73 189.76 561.82 193.86"/><polygon class="cls-9" points="568.87 189.76 561.82 193.86 554.73 189.76 561.78 185.66 568.87 189.76"/></g><g class="cls-2"><polygon class="cls-7" points="561.9 193.55 561.88 201.7 509.73 232.01 509.75 223.86 561.9 193.55"/><polygon class="cls-8" points="509.75 223.86 509.73 232.01 502.63 227.91 502.66 219.76 509.75 223.86"/><polygon class="cls-9" points="561.9 193.55 509.75 223.86 502.66 219.76 554.81 189.45 561.9 193.55"/></g><g class="cls-2"><polygon class="cls-7" points="562.07 233.38 562.05 241.53 509.9 271.84 509.92 263.69 562.07 233.38"/><polygon class="cls-8" points="509.92 263.69 509.9 271.84 502.8 267.75 502.83 259.6 509.92 263.69"/><polygon class="cls-9" points="562.07 233.38 509.92 263.69 502.83 259.6 554.98 229.29 562.07 233.38"/></g><g class="cls-2"><polygon class="cls-7" points="516.87 219.77 516.59 317.59 509.54 321.68 509.82 223.86 516.87 219.77"/><polygon class="cls-8" points="509.82 223.86 509.54 321.68 502.45 317.59 502.73 219.77 509.82 223.86"/><polygon class="cls-9" points="516.87 219.77 509.82 223.86 502.73 219.77 509.77 215.67 516.87 219.77"/></g><polygon class="cls-6" points="448.39 405.85 448.68 506.02 391.93 538.78 391.64 438.61 448.39 405.85"/><g class="cls-2"><polygon class="cls-7" points="464.88 508.22 464.86 516.37 398.61 554.87 398.63 546.72 464.88 508.22"/><polygon class="cls-8" points="398.63 546.72 398.61 554.87 380.88 544.63 380.9 536.48 398.63 546.72"/><polygon class="cls-9" points="464.88 508.22 398.63 546.72 380.9 536.48 447.15 497.98 464.88 508.22"/></g><g class="cls-2"><polygon class="cls-7" points="451.59 406.52 451.31 504.34 444.27 508.43 444.54 410.61 451.59 406.52"/><polygon class="cls-8" points="444.54 410.61 444.27 508.43 437.17 504.34 437.45 406.52 444.54 410.61"/><polygon class="cls-9" points="451.59 406.52 444.54 410.61 437.45 406.52 444.5 402.42 451.59 406.52"/></g><g class="cls-2"><polygon class="cls-7" points="444.62 410.3 444.6 418.45 392.45 448.75 392.47 440.6 444.62 410.3"/><polygon class="cls-8" points="392.47 440.6 392.45 448.75 385.35 444.66 385.38 436.51 392.47 440.6"/><polygon class="cls-9" points="444.62 410.3 392.47 440.6 385.38 436.51 437.53 406.2 444.62 410.3"/></g><g class="cls-2"><polygon class="cls-7" points="444.8 450.13 444.77 458.28 392.62 488.59 392.64 480.44 444.8 450.13"/><polygon class="cls-8" points="392.64 480.44 392.62 488.59 385.52 484.49 385.55 476.34 392.64 480.44"/><polygon class="cls-9" points="444.8 450.13 392.64 480.44 385.55 476.34 437.7 446.03 444.8 450.13"/></g><g class="cls-2"><polygon class="cls-7" points="399.59 436.51 399.31 534.33 392.26 538.43 392.54 440.61 399.59 436.51"/><polygon class="cls-8" points="392.54 440.61 392.26 538.43 385.17 534.33 385.45 436.51 392.54 440.61"/><polygon class="cls-9" points="399.59 436.51 392.54 440.61 385.45 436.51 392.5 432.42 399.59 436.51"/></g><polygon class="cls-6" points="566.89 340.26 567.18 440.44 510.42 473.2 510.14 373.03 566.89 340.26"/><g class="cls-2"><polygon class="cls-7" points="583.38 442.63 583.36 450.79 517.11 489.29 517.14 481.13 583.38 442.63"/><polygon class="cls-8" points="517.14 481.13 517.11 489.29 499.38 479.05 499.4 470.89 517.14 481.13"/><polygon class="cls-9" points="583.38 442.63 517.14 481.13 499.4 470.89 565.65 432.39 583.38 442.63"/></g><g class="cls-2"><polygon class="cls-7" points="570.09 340.94 569.82 438.75 562.77 442.85 563.05 345.03 570.09 340.94"/><polygon class="cls-8" points="563.05 345.03 562.77 442.85 555.67 438.75 555.95 340.93 563.05 345.03"/><polygon class="cls-9" points="570.09 340.94 563.05 345.03 555.95 340.93 562.99 336.84 570.09 340.94"/></g><g class="cls-2"><polygon class="cls-7" points="563.13 344.71 563.1 352.86 510.95 383.17 510.97 375.02 563.13 344.71"/><polygon class="cls-8" points="510.97 375.02 510.95 383.17 503.86 379.08 503.88 370.93 510.97 375.02"/><polygon class="cls-9" points="563.13 344.71 510.97 375.02 503.88 370.93 556.03 340.62 563.13 344.71"/></g><g class="cls-2"><polygon class="cls-7" points="563.3 384.55 563.27 392.7 511.12 423.01 511.14 414.85 563.3 384.55"/><polygon class="cls-8" points="511.14 414.85 511.12 423.01 504.03 418.91 504.05 410.76 511.14 414.85"/><polygon class="cls-9" points="563.3 384.55 511.14 414.85 504.05 410.76 556.2 380.45 563.3 384.55"/></g><g class="cls-2"><polygon class="cls-7" points="518.09 370.93 517.82 468.75 510.77 472.85 511.05 375.03 518.09 370.93"/><polygon class="cls-8" points="511.05 375.03 510.77 472.85 503.68 468.75 503.95 370.93 511.05 375.03"/><polygon class="cls-9" points="518.09 370.93 511.05 375.03 503.95 370.93 511 366.83 518.09 370.93"/></g><polygon class="cls-6" points="195.04 254.75 194.8 341.46 144.56 312.45 144.8 225.74 195.04 254.75"/><g class="cls-2"><polygon class="cls-7" points="208.65 343.54 208.63 351.69 191 361.94 191.03 353.78 208.65 343.54"/><polygon class="cls-8" points="191.03 353.78 191 361.94 124.32 323.44 124.34 315.29 191.03 353.78"/><polygon class="cls-9" points="208.65 343.54 191.03 353.78 124.34 315.29 141.97 305.05 208.65 343.54"/></g><g class="cls-2"><polygon class="cls-7" points="152.19 213.58 151.91 311.4 144.86 315.5 145.14 217.68 152.19 213.58"/><polygon class="cls-8" points="145.14 217.68 144.86 315.5 137.77 311.4 138.04 213.58 145.14 217.68"/><polygon class="cls-9" points="152.19 213.58 145.14 217.68 138.04 213.58 145.1 209.48 152.19 213.58"/></g><g class="cls-2"><polygon class="cls-7" points="203.44 243.17 203.42 251.32 196.37 255.41 196.39 247.26 203.44 243.17"/><polygon class="cls-8" points="196.39 247.26 196.37 255.41 143.87 225.1 143.89 216.95 196.39 247.26"/><polygon class="cls-9" points="203.44 243.17 196.39 247.26 143.89 216.95 150.94 212.85 203.44 243.17"/></g><g class="cls-2"><polygon class="cls-7" points="204.03 282.82 204.01 290.97 196.96 295.07 196.98 286.92 204.03 282.82"/><polygon class="cls-8" points="196.98 286.92 196.96 295.07 144.96 265.05 144.99 256.89 196.98 286.92"/><polygon class="cls-9" points="204.03 282.82 196.98 286.92 144.99 256.89 152.03 252.8 204.03 282.82"/></g><g class="cls-2"><polygon class="cls-7" points="204.19 243.58 203.91 341.4 196.87 345.5 197.14 247.68 204.19 243.58"/><polygon class="cls-8" points="197.14 247.68 196.87 345.5 189.77 341.4 190.05 243.58 197.14 247.68"/><polygon class="cls-9" points="204.19 243.58 197.14 247.68 190.05 243.58 197.1 239.49 204.19 243.58"/></g><polygon class="cls-6" points="280.23 310.49 279.98 397.2 229.74 368.2 229.99 281.49 280.23 310.49"/><g class="cls-2"><polygon class="cls-7" points="293.83 399.28 293.81 407.43 276.19 417.67 276.21 409.52 293.83 399.28"/><polygon class="cls-8" points="276.21 409.52 276.19 417.67 209.51 379.17 209.53 371.02 276.21 409.52"/><polygon class="cls-9" points="293.83 399.28 276.21 409.52 209.53 371.02 227.15 360.78 293.83 399.28"/></g><g class="cls-2"><polygon class="cls-7" points="237.38 269.32 237.1 367.14 230.06 371.24 230.33 273.42 237.38 269.32"/><polygon class="cls-8" points="230.33 273.42 230.06 371.24 222.96 367.14 223.23 269.32 230.33 273.42"/><polygon class="cls-9" points="237.38 269.32 230.33 273.42 223.23 269.32 230.28 265.22 237.38 269.32"/></g><g class="cls-2"><polygon class="cls-7" points="288.62 298.91 288.6 307.06 281.55 311.16 281.58 303.01 288.62 298.91"/><polygon class="cls-8" points="281.58 303.01 281.55 311.16 229.05 280.85 229.08 272.7 281.58 303.01"/><polygon class="cls-9" points="288.62 298.91 281.58 303.01 229.08 272.7 236.12 268.6 288.62 298.91"/></g><g class="cls-2"><polygon class="cls-7" points="289.22 338.56 289.19 346.71 282.14 350.81 282.16 342.66 289.22 338.56"/><polygon class="cls-8" points="282.16 342.66 282.14 350.81 230.14 320.79 230.17 312.64 282.16 342.66"/><polygon class="cls-9" points="289.22 338.56 282.16 342.66 230.17 312.64 237.22 308.54 289.22 338.56"/></g><g class="cls-2"><polygon class="cls-7" points="289.38 299.32 289.1 397.14 282.05 401.23 282.33 303.41 289.38 299.32"/><polygon class="cls-8" points="282.33 303.41 282.05 401.23 274.96 397.14 275.24 299.32 282.33 303.41"/><polygon class="cls-9" points="289.38 299.32 282.33 303.41 275.24 299.32 282.28 295.22 289.38 299.32"/></g><polygon class="cls-6" points="195.04 394.75 194.8 481.46 144.56 452.45 144.8 365.74 195.04 394.75"/><g class="cls-2"><polygon class="cls-7" points="208.65 483.55 208.62 491.7 191.01 501.93 191.03 493.78 208.65 483.55"/><polygon class="cls-8" points="191.03 493.78 191.01 501.93 124.33 463.44 124.35 455.28 191.03 493.78"/><polygon class="cls-9" points="208.65 483.55 191.03 493.78 124.35 455.28 141.96 445.05 208.65 483.55"/></g><g class="cls-2"><polygon class="cls-7" points="152.19 353.58 151.91 451.4 144.86 455.49 145.14 357.67 152.19 353.58"/><polygon class="cls-8" points="145.14 357.67 144.86 455.49 137.77 451.4 138.05 353.58 145.14 357.67"/><polygon class="cls-9" points="152.19 353.58 145.14 357.67 138.05 353.58 145.09 349.48 152.19 353.58"/></g><g class="cls-2"><polygon class="cls-7" points="203.44 383.17 203.42 391.32 196.37 395.42 196.39 387.27 203.44 383.17"/><polygon class="cls-8" points="196.39 387.27 196.37 395.42 143.87 365.11 143.89 356.95 196.39 387.27"/><polygon class="cls-9" points="203.44 383.17 196.39 387.27 143.89 356.95 150.94 352.86 203.44 383.17"/></g><g class="cls-2"><polygon class="cls-7" points="204.03 422.82 204.01 430.98 196.96 435.07 196.98 426.92 204.03 422.82"/><polygon class="cls-8" points="196.98 426.92 196.96 435.07 144.96 405.05 144.99 396.9 196.98 426.92"/><polygon class="cls-9" points="204.03 422.82 196.98 426.92 144.99 396.9 152.03 392.8 204.03 422.82"/></g><g class="cls-2"><polygon class="cls-7" points="204.19 383.58 203.91 481.39 196.87 485.49 197.14 387.67 204.19 383.58"/><polygon class="cls-8" points="197.14 387.67 196.87 485.49 189.77 481.39 190.05 383.58 197.14 387.67"/><polygon class="cls-9" points="204.19 383.58 197.14 387.67 190.05 383.58 197.1 379.48 204.19 383.58"/></g><polygon class="cls-6" points="280.23 450.49 279.98 537.2 229.74 508.19 229.99 421.48 280.23 450.49"/><g class="cls-2"><polygon class="cls-7" points="293.83 539.28 293.81 547.44 276.19 557.68 276.21 549.52 293.83 539.28"/><polygon class="cls-8" points="276.21 549.52 276.19 557.68 209.51 519.18 209.53 511.03 276.21 549.52"/><polygon class="cls-9" points="293.83 539.28 276.21 549.52 209.53 511.03 227.15 500.79 293.83 539.28"/></g><g class="cls-2"><polygon class="cls-7" points="237.38 409.32 237.1 507.14 230.06 511.23 230.33 413.41 237.38 409.32"/><polygon class="cls-8" points="230.33 413.41 230.06 511.23 222.96 507.13 223.23 409.31 230.33 413.41"/><polygon class="cls-9" points="237.38 409.32 230.33 413.41 223.23 409.31 230.28 405.22 237.38 409.32"/></g><g class="cls-2"><polygon class="cls-7" points="288.62 438.91 288.6 447.06 281.55 451.15 281.58 443 288.62 438.91"/><polygon class="cls-8" points="281.58 443 281.55 451.15 229.05 420.84 229.08 412.69 281.58 443"/><polygon class="cls-9" points="288.62 438.91 281.58 443 229.08 412.69 236.12 408.6 288.62 438.91"/></g><g class="cls-2"><polygon class="cls-7" points="289.21 478.56 289.19 486.71 282.14 490.81 282.17 482.66 289.21 478.56"/><polygon class="cls-8" points="282.17 482.66 282.14 490.81 230.15 460.79 230.17 452.63 282.17 482.66"/><polygon class="cls-9" points="289.21 478.56 282.17 482.66 230.17 452.63 237.22 448.54 289.21 478.56"/></g><g class="cls-2"><polygon class="cls-7" points="289.38 439.32 289.1 537.14 282.05 541.24 282.33 443.42 289.38 439.32"/><polygon class="cls-8" points="282.33 443.42 282.05 541.24 274.96 537.14 275.24 439.32 282.33 443.42"/><polygon class="cls-9" points="289.38 439.32 282.33 443.42 275.24 439.32 282.28 435.23 289.38 439.32"/></g></g></g></svg>