<svg xmlns="http://www.w3.org/2000/svg" xmlns:xlink="http://www.w3.org/1999/xlink" viewBox="0 0 707.11 409.58"><defs><style>.cls-1{fill:none;}.cls-2{fill:#848484;}.cls-3{isolation:isolate;}.cls-4{clip-path:url(#clip-path);}.cls-5{fill:#fff;}.cls-6{fill:#666;}.cls-7{fill:#4d4d4d;}.cls-8{fill:#333;}.cls-9{fill:#1f1f1f;}.cls-10{fill:#080808;}.cls-11{opacity:0.3;}.cls-12{fill:#242424;}.cls-13{fill:#474747;}.cls-14{fill:#575757;}.cls-15{fill:#2b2b2b;}.cls-16{fill:#919191;}.cls-17{fill:#707070;}.cls-18{fill:#4f4f4f;}.cls-19{fill:#757575;}.cls-20{fill:#787878;}.cls-21{fill:#b8b8b8;}.cls-22{fill:#6e6e6e;}.cls-23{fill:#c2c2c2;}.cls-24{fill:#2565c4;}.cls-25{fill:url(#linear-gradient);}.cls-26{fill:#969696;}.cls-27{fill:url(#linear-gradient-2);}.cls-28{fill:url(#linear-gradient-3);}.cls-29{fill:#d9d9d9;}.cls-30{fill:#cf6400;}.cls-31{fill:#ffd847;}.cls-32{fill:#696969;}.cls-33{fill:#1f8ba6;}.cls-34{fill:#ff6a00;}.cls-35{fill:#1a1a1a;}.cls-36{fill:#121212;}.cls-37{fill:url(#linear-gradient-4);}.cls-38{fill:url(#linear-gradient-5);}.cls-39{fill:url(#linear-gradient-6);}.cls-40{fill:url(#linear-gradient-7);}.cls-41{fill:#0a0a0a;}.cls-42{fill:url(#linear-gradient-8);}.cls-43{fill:#262626;}.cls-44{fill:url(#linear-gradient-9);}.cls-45{fill:#d63a3a;}.cls-46{fill:#4a2c00;}.cls-47{fill:#454545;}.cls-48{fill:#292929;}.cls-49{fill:#3b3b3b;}.cls-50{fill:#545454;}.cls-51{fill:#ff4d4d;}.cls-52{fill:#a62626;}.cls-53{fill:url(#linear-gradient-10);}.cls-54{fill:url(#linear-gradient-11);}.cls-55{fill:url(#linear-gradient-12);}.cls-56{fill:url(#linear-gradient-13);}.cls-57{fill:#d49c00;}.cls-58{fill:#fa0;}.cls-59{fill:#b88700;}.cls-60{fill:#a17600;}.cls-61{fill:#ffc600;}.cls-62{fill:#525252;}.cls-63{fill:#ffbe3d;}.cls-64{fill:#bdbdbd;}.cls-65{fill:#163c75;}.cls-66{fill:#858585;}.cls-67{fill:#c4c4c4;}.cls-68{fill:#a1a1a1;}.cls-69{fill:#2acbe0;}.cls-70{fill:#875340;}.cls-71{fill:url(#linear-gradient-14);}.cls-72{fill:#663f30;}.cls-73{fill:#00a6bd;}.cls-74{fill:url(#linear-gradient-15);}.cls-75{fill:#616161;}.cls-76{fill:url(#linear-gradient-16);}.cls-77{fill:#38e8ff;}.cls-78{fill:url(#linear-gradient-17);}.cls-79{fill:url(#linear-gradient-18);}.cls-80{fill:#ff5252;}.cls-81{fill:#573629;}</style><clipPath id="clip-path"><polygon class="cls-1" points="707.11 204.79 354.71 409.58 0 204.79 352.4 0 707.11 204.79"/></clipPath><linearGradient id="linear-gradient" x1="606.02" y1="190.89" x2="627.38" y2="190.89" gradientUnits="userSpaceOnUse"><stop offset="0" stop-color="#52b4ff"/><stop offset="1" stop-color="#175688"/></linearGradient><linearGradient id="linear-gradient-2" x1="671.4" y1="203.21" x2="639.74" y2="173.42" xlink:href="#linear-gradient"/><linearGradient id="linear-gradient-3" x1="657.6" y1="167.69" x2="650.34" y2="195.63" xlink:href="#linear-gradient"/><linearGradient id="linear-gradient-4" x1="54.66" y1="196.94" x2="69.86" y2="175.29" gradientUnits="userSpaceOnUse"><stop offset="0" stop-color="#636363"/><stop offset="1" stop-color="#0f0f0f"/></linearGradient><linearGradient id="linear-gradient-5" x1="78.6" y1="208.05" x2="90.38" y2="191.34" xlink:href="#linear-gradient-4"/><linearGradient id="linear-gradient-6" x1="104.05" y1="220.45" x2="113.23" y2="205.65" xlink:href="#linear-gradient-4"/><linearGradient id="linear-gradient-7" x1="161.76" y1="219.23" x2="146.98" y2="186.88" xlink:href="#linear-gradient-4"/><linearGradient id="linear-gradient-8" x1="169.49" y1="187.27" x2="175.22" y2="170.33" xlink:href="#linear-gradient-4"/><linearGradient id="linear-gradient-9" x1="41.96" y1="185.31" x2="47.47" y2="185.31" xlink:href="#linear-gradient"/><linearGradient id="linear-gradient-10" x1="255" y1="105.67" x2="278.74" y2="77.5" xlink:href="#linear-gradient"/><linearGradient id="linear-gradient-11" x1="234.9" y1="92.18" x2="256.95" y2="67.29" xlink:href="#linear-gradient"/><linearGradient id="linear-gradient-12" x1="314.7" y1="98.65" x2="274.85" y2="60.08" xlink:href="#linear-gradient"/><linearGradient id="linear-gradient-13" x1="320.7" y1="59.95" x2="328.73" y2="47.06" xlink:href="#linear-gradient"/><linearGradient id="linear-gradient-14" x1="351.75" y1="259.85" x2="372.64" y2="231.31" xlink:href="#linear-gradient"/><linearGradient id="linear-gradient-15" x1="421.14" y1="296.04" x2="433.78" y2="256.25" xlink:href="#linear-gradient"/><linearGradient id="linear-gradient-16" x1="340.87" y1="241.26" x2="345.03" y2="241.26" xlink:href="#linear-gradient"/><linearGradient id="linear-gradient-17" x1="493.97" y1="308.19" x2="474.03" y2="275.94" xlink:href="#linear-gradient"/><linearGradient id="linear-gradient-18" x1="485.09" y1="264.74" x2="490.46" y2="239.09" xlink:href="#linear-gradient"/></defs><title>Parkplatz</title><g id="Ebene_2" data-name="Ebene 2"><g id="Ebene_1-2" data-name="Ebene 1"><polygon class="cls-2" points="707.11 204.79 354.71 409.58 0 204.79 352.4 0 707.11 204.79"/><g class="cls-3"><g class="cls-4"><polyline class="cls-5" points="622.31 256.47 630.76 251.56 520.14 187.69 511.69 192.6 622.31 256.47"/><polyline class="cls-5" points="533.9 307.85 542.35 302.93 431.73 239.06 423.28 243.98 533.9 307.85"/><polyline class="cls-5" points="445.49 359.22 453.94 354.31 343.32 290.44 334.87 295.35 445.49 359.22"/><polyline class="cls-5" points="376.15 114.35 384.6 109.44 273.98 45.57 265.52 50.48 376.15 114.35"/><polyline class="cls-5" points="287.74 165.72 296.19 160.81 185.57 96.94 177.12 101.86 287.74 165.72"/><polyline class="cls-5" points="199.33 217.1 207.78 212.19 97.16 148.32 88.71 153.23 199.33 217.1"/></g></g><polygon class="cls-6" points="667.23 160.85 664.06 162.7 663.5 162.37 666.68 160.53 667.23 160.85"/><polygon class="cls-7" points="664.06 170.66 663.5 170.34 663.5 162.37 664.06 162.7 664.06 170.66"/><polygon class="cls-8" points="667.23 168.82 664.06 170.66 664.06 162.7 667.23 160.85 667.23 168.82"/><path class="cls-9" d="M664,164.94a.62.62,0,0,0-.29-.5.2.2,0,0,0-.21,0l-1.52.86.4.72,1.54-.86h0A.22.22,0,0,0,664,164.94Z"/><path class="cls-10" d="M662.46,165.81c0,.19-.14.27-.29.17a.62.62,0,0,1-.29-.51c0-.18.12-.26.29-.16A.67.67,0,0,1,662.46,165.81Z"/><path class="cls-11" d="M651,178.42l-17.84,9v34.3l-99.69-57.57L521.6,171l17.69,10.22,2.06,4.69h6l54.82,31.61,3.13,5.17h5.82l22,12.7h19.64L701,207.31Z"/><path class="cls-12" d="M601.62,206.13l-6.87,4s-2.45-4.7,2.72-6.37S601.62,206.13,601.62,206.13Z"/><polygon class="cls-12" points="519.79 160.6 587.64 199.77 587.64 186.42 519.79 147.25 519.79 160.6"/><polygon class="cls-12" points="536.14 168.74 528.13 173.36 531.29 165.94 536.14 168.74"/><path class="cls-8" d="M545.12,181.17c0,4.22-3,5.93-6.62,3.82a14.64,14.64,0,0,1-6.62-11.46c0-4.22,3-5.93,6.62-3.82A14.65,14.65,0,0,1,545.12,181.17Z"/><path class="cls-13" d="M551.15,177.69a14.6,14.6,0,0,0-6.61-11.47c-1.79-1-3.4-1.14-4.59-.5h0l-6.08,3.52c1.2-.67,2.83-.56,4.64.48a14.65,14.65,0,0,1,6.62,11.46c0,2-.68,3.47-1.8,4.19h0l6-3.49h0C550.47,181.15,551.15,179.71,551.15,177.69Z"/><path class="cls-14" d="M545.39,181a14.58,14.58,0,0,0-6.62-11.45c-1.78-1-3.39-1.16-4.59-.52l-.32.19c1.2-.67,2.83-.56,4.64.48a14.65,14.65,0,0,1,6.62,11.46c0,2-.68,3.47-1.8,4.19h0l.27-.16S545.39,184.17,545.39,181Z"/><path class="cls-15" d="M547.37,179.88a14.62,14.62,0,0,0-6.63-11.46c-1.78-1-3.39-1.15-4.59-.51l-.31.19c1.19-.67,2.83-.56,4.64.48A14.63,14.63,0,0,1,547.09,180c0,2-.68,3.47-1.79,4.19h0l.27-.15S547.37,183,547.37,179.88Z"/><path class="cls-15" d="M549.4,178.7a14.61,14.61,0,0,0-6.62-11.46c-1.78-1-3.4-1.14-4.59-.51l-.32.19c1.2-.67,2.83-.56,4.64.48a14.64,14.64,0,0,1,6.62,11.46c0,2-.68,3.47-1.8,4.19h0l.26-.15S549.4,181.86,549.4,178.7Z"/><path class="cls-8" d="M546.54,180.73l-.88-1.43.5-1.51L545,176.65l.3-1.62-1.49-.88.16-1.69-1.73-.52-.17-1.6-1.76-.26-.42-1.16-2.14-.24-.68-.61s-1.58.41-2,.56a2.67,2.67,0,0,0-.46.2h0l-.26.14a3.36,3.36,0,0,1,.68-.28l1.82-.5.72.63,2.12.22.39,1.16,1.79.26L542,172l1.73.52-.14,1.72,1.48.85-.31,1.58,1.22,1.15-.5,1.53.88,1.36-.83,1.28.41.91-1.11,1.13-.16.56.21-.12.07-.43,1.17-1.17-.38-.91Z"/><path class="cls-8" d="M548.66,179.5l-.88-1.43.51-1.51-1.21-1.15.3-1.61-1.49-.88.15-1.69-1.73-.52-.16-1.61-1.76-.25-.42-1.16-2.15-.24-.68-.61s-1.56.41-2,.56a2.76,2.76,0,0,0-.47.2h0l-.26.14a3.83,3.83,0,0,1,.69-.28l1.82-.5.71.62,2.12.23.4,1.16,1.77.27.14,1.56,1.73.52-.13,1.72,1.47.85-.3,1.58,1.22,1.14-.5,1.54.88,1.36-.83,1.28.4.9-1.1,1.14-.16.56.21-.12.07-.43,1.17-1.17-.39-.91Z"/><path class="cls-8" d="M550.76,178.28l-.87-1.42.51-1.51-1.22-1.16.31-1.61L548,171.7l.14-1.68-1.72-.53-.16-1.6-1.77-.25-.41-1.17-2.15-.23-.67-.61s-1.57.4-2,.55a4.58,4.58,0,0,0-.46.2h0l-.26.15a3.05,3.05,0,0,1,.68-.28c.38-.12,1.83-.51,1.83-.51l.7.63,2.13.22.4,1.16,1.79.27.13,1.57,1.71.51-.13,1.72,1.49.85-.31,1.59,1.22,1.14-.5,1.52.87,1.37-.83,1.29.41.9-1.1,1.13-.17.56.21-.12.08-.43,1.16-1.17-.38-.9Z"/><path class="cls-9" d="M543.2,180.06c0,3-2.11,4.21-4.7,2.71a10.37,10.37,0,0,1-4.7-8.13c0-3,2.11-4.2,4.7-2.71A10.4,10.4,0,0,1,543.2,180.06Z"/><path class="cls-16" d="M542.6,179.72c0,2.61-1.83,3.68-4.1,2.37a9.08,9.08,0,0,1-4.1-7.1c0-2.62,1.84-3.68,4.1-2.37A9.06,9.06,0,0,1,542.6,179.72Z"/><path class="cls-17" d="M540,178.19c0,.93-.65,1.3-1.45.84a3.22,3.22,0,0,1-1.45-2.51c0-.93.65-1.3,1.45-.84A3.19,3.19,0,0,1,540,178.19Z"/><path class="cls-14" d="M538.88,177.57c0,.25-.16.35-.38.22a.84.84,0,0,1-.38-.66c0-.24.17-.34.38-.22A.82.82,0,0,1,538.88,177.57Z"/><path class="cls-18" d="M539.4,177.22a.13.13,0,0,1-.06.1c-.11.06-.29,0-.39-.22s-.1-.39,0-.44l.08,0a.45.45,0,0,0,.07.34A.42.42,0,0,0,539.4,177.22Z"/><path class="cls-15" d="M539.4,177.22a.42.42,0,0,1-.3-.24.45.45,0,0,1-.07-.34.42.42,0,0,1,.31.24A.44.44,0,0,1,539.4,177.22Z"/><path class="cls-18" d="M539.39,178.7c0,.05,0,.08-.07.1s-.27,0-.39-.22-.09-.38,0-.44l.09,0a.49.49,0,0,0,.06.34A.39.39,0,0,0,539.39,178.7Z"/><path class="cls-15" d="M539.39,178.7a.39.39,0,0,1-.31-.24.49.49,0,0,1-.06-.34.42.42,0,0,1,.3.24A.45.45,0,0,1,539.39,178.7Z"/><path class="cls-18" d="M538.1,177.94a.14.14,0,0,1-.07.1c-.1.06-.28,0-.38-.22s-.1-.38,0-.44l.08,0a.49.49,0,0,0,.06.34A.43.43,0,0,0,538.1,177.94Z"/><path class="cls-15" d="M538.1,177.94a.43.43,0,0,1-.31-.24.49.49,0,0,1-.06-.34.41.41,0,0,1,.3.24A.45.45,0,0,1,538.1,177.94Z"/><path class="cls-18" d="M538.11,176.46a.14.14,0,0,1-.06.1c-.11.06-.28,0-.38-.22s-.12-.38,0-.45l.07,0a.43.43,0,0,0,.07.35A.4.4,0,0,0,538.11,176.46Z"/><path class="cls-15" d="M538.11,176.46a.4.4,0,0,1-.3-.24.43.43,0,0,1-.07-.35.49.49,0,0,1,.31.25A.55.55,0,0,1,538.11,176.46Z"/><path class="cls-14" d="M539.74,174.22c-.25.33-.71.39-1.24.09a3.28,3.28,0,0,1-1.44-2.22,3.29,3.29,0,0,1,.43.09,3.31,3.31,0,0,0,1.37,1.87A1.11,1.11,0,0,0,539.74,174.22Z"/><path class="cls-15" d="M539.94,173.75a1.06,1.06,0,0,1-.2.47,1.11,1.11,0,0,1-.88-.17,3.31,3.31,0,0,1-1.37-1.87,4.84,4.84,0,0,1,1,.44A6.88,6.88,0,0,1,539.94,173.75Z"/><path class="cls-14" d="M541.72,182.14a2.18,2.18,0,0,1-1.91.45c-.28-.84-.14-1.61.39-1.8l0,0a1.77,1.77,0,0,0-.07,1.57A2.34,2.34,0,0,0,541.72,182.14Z"/><path class="cls-15" d="M542,181.81a1.87,1.87,0,0,1-.3.33,2.34,2.34,0,0,1-1.55.2,1.77,1.77,0,0,1,.07-1.57C540.78,180.61,541.51,181.05,542,181.81Z"/><path class="cls-14" d="M542.6,179.72c0,.07,0,.14,0,.21a3.21,3.21,0,0,1-1.55-2.05c-.19-.82,0-1.43.5-1.58a1.58,1.58,0,0,0-.13,1.33,3.39,3.39,0,0,0,1.18,1.83C542.59,179.55,542.6,179.63,542.6,179.72Z"/><path class="cls-15" d="M542.59,179.46a3.39,3.39,0,0,1-1.18-1.83,1.58,1.58,0,0,1,.13-1.33l.17,0A8,8,0,0,1,542.59,179.46Z"/><path class="cls-14" d="M537.37,180.64a1.13,1.13,0,0,1-.15.47,9.75,9.75,0,0,1-2.23-3.34.85.85,0,0,1,.45,0A9.88,9.88,0,0,0,537.37,180.64Z"/><path class="cls-15" d="M537.37,180.64a9.88,9.88,0,0,1-1.93-2.89,2.32,2.32,0,0,1,1.4,1.1A3,3,0,0,1,537.37,180.64Z"/><path class="cls-14" d="M535.86,175.24c-.3.39-.88.38-1.45-.05a1.41,1.41,0,0,1,0-.2,3.17,3.17,0,0,1,.9-2.44s0,0,.06.07a3.44,3.44,0,0,0-.6,2.11,1.48,1.48,0,0,0,0,.21A1.29,1.29,0,0,0,535.86,175.24Z"/><path class="cls-15" d="M536,175a1.15,1.15,0,0,1-.14.27,1.29,1.29,0,0,1-1.09-.3,1.48,1.48,0,0,1,0-.21,3.44,3.44,0,0,1,.6-2.11A2.76,2.76,0,0,1,536,175Z"/><polygon class="cls-14" points="528.13 173.36 525.93 171.07 529.68 162.27 546.8 172.15 550.3 185.18 548.07 184.84 545.14 173.94 531.29 165.94 528.13 173.36"/><polygon class="cls-19" points="529.68 162.27 537.03 158.04 554.15 167.93 546.8 172.15 529.68 162.27"/><polygon class="cls-20" points="554.15 167.93 557.65 180.96 550.3 185.18 546.8 172.15 554.15 167.93"/><polygon class="cls-21" points="628.87 109.28 559.13 69.03 511.66 96.44 581.39 136.69 628.87 109.28"/><polygon class="cls-16" points="511.66 96.44 581.39 136.69 581.39 191.1 511.66 150.84 511.66 96.44"/><polygon class="cls-22" points="628.87 163.69 581.39 191.1 581.39 136.69 628.87 109.28 628.87 163.69"/><path class="cls-8" d="M608.83,218c0,4.23-3,5.94-6.61,3.82a14.6,14.6,0,0,1-6.61-11.45c0-4.23,2.95-5.94,6.61-3.83A14.66,14.66,0,0,1,608.83,218Z"/><path class="cls-13" d="M614.87,214.49A14.61,14.61,0,0,0,608.26,203c-1.79-1-3.41-1.15-4.6-.51h0L597.58,206c1.19-.67,2.83-.56,4.64.48A14.66,14.66,0,0,1,608.83,218c0,2-.68,3.47-1.78,4.19h0l6-3.47h0A4.79,4.79,0,0,0,614.87,214.49Z"/><path class="cls-14" d="M609.1,217.81a14.63,14.63,0,0,0-6.61-11.45c-1.79-1-3.4-1.15-4.6-.52l-.31.19c1.19-.67,2.83-.56,4.64.48A14.66,14.66,0,0,1,608.83,218c0,2-.68,3.47-1.78,4.19h0l.26-.15S609.11,221,609.1,217.81Z"/><path class="cls-15" d="M611.08,216.69a14.61,14.61,0,0,0-6.62-11.47c-1.78-1-3.39-1.15-4.59-.51l-.32.19c1.2-.67,2.83-.56,4.64.48a14.64,14.64,0,0,1,6.62,11.47c0,2-.69,3.46-1.8,4.18h0l.27-.16S611.08,219.84,611.08,216.69Z"/><path class="cls-15" d="M613.11,215.5A14.63,14.63,0,0,0,606.5,204c-1.79-1-3.41-1.14-4.59-.51l-.33.19c1.2-.67,2.84-.56,4.64.48a14.64,14.64,0,0,1,6.62,11.46c0,2-.68,3.47-1.78,4.2h0l.26-.16S613.11,218.66,613.11,215.5Z"/><path class="cls-8" d="M610.25,217.53l-.88-1.43.51-1.5-1.21-1.15.3-1.62-1.5-.88.16-1.68-1.73-.53-.16-1.6-1.77-.25-.4-1.17-2.16-.23-.67-.61s-1.57.4-2,.55c-.15.06-.3.12-.46.2h0l-.25.15a2.56,2.56,0,0,1,.68-.28c.38-.12,1.82-.51,1.82-.51l.71.63,2.13.22.39,1.16,1.78.27.13,1.57,1.73.51-.14,1.73,1.49.84-.31,1.59,1.22,1.14-.51,1.53.89,1.36-.83,1.29.4.9-1.11,1.13-.15.56.21-.12.07-.43,1.17-1.17-.4-.91Z"/><path class="cls-8" d="M612.38,216.3l-.89-1.43.51-1.5-1.2-1.15.3-1.62-1.5-.88.16-1.69-1.73-.52-.17-1.6-1.76-.26-.41-1.16-2.15-.24-.68-.61s-1.57.41-2,.56a2.94,2.94,0,0,0-.44.2h0l-.27.15a4.09,4.09,0,0,1,.68-.29l1.83-.5.71.63,2.12.22.4,1.16,1.78.27.14,1.57,1.72.51-.14,1.72,1.49.85-.32,1.58,1.22,1.15-.5,1.53.88,1.36-.83,1.29.41.9-1.11,1.13-.15.56.2-.11.08-.43,1.17-1.18-.4-.91Z"/><path class="cls-8" d="M614.49,215.09l-.89-1.43.52-1.51L612.9,211l.3-1.62-1.49-.87.16-1.69-1.74-.52-.16-1.61-1.76-.25-.41-1.16-2.16-.24-.67-.61s-1.58.4-2,.55a2.9,2.9,0,0,0-.47.21h0l-.26.15a3.14,3.14,0,0,1,.68-.28l1.82-.5.71.62,2.14.22.38,1.16,1.79.27.13,1.57,1.72.51-.13,1.73,1.48.84-.31,1.59,1.22,1.14-.5,1.53.88,1.36-.84,1.29.41.9-1.1,1.13-.15.56.2-.11.07-.43,1.16-1.18-.38-.9Z"/><path class="cls-9" d="M606.91,216.86c0,3-2.1,4.22-4.69,2.72a10.4,10.4,0,0,1-4.7-8.13c0-3,2.11-4.21,4.7-2.72A10.39,10.39,0,0,1,606.91,216.86Z"/><path class="cls-16" d="M606.31,216.52c0,2.61-1.82,3.68-4.09,2.37a9.08,9.08,0,0,1-4.1-7.1c0-2.62,1.84-3.68,4.1-2.37A9,9,0,0,1,606.31,216.52Z"/><path class="cls-17" d="M603.67,215c0,.93-.65,1.31-1.45.84a3.21,3.21,0,0,1-1.45-2.51c0-.93.65-1.3,1.45-.84A3.22,3.22,0,0,1,603.67,215Z"/><path class="cls-14" d="M602.6,214.38c0,.24-.17.34-.38.22a.83.83,0,0,1-.39-.66c0-.25.17-.35.39-.23A.86.86,0,0,1,602.6,214.38Z"/><path class="cls-18" d="M603.12,214s0,.08-.06.1-.28,0-.38-.22-.12-.38,0-.44l.06,0a.45.45,0,0,0,.07.34A.41.41,0,0,0,603.12,214Z"/><path class="cls-15" d="M603.12,214a.41.41,0,0,1-.31-.24.45.45,0,0,1-.07-.34.42.42,0,0,1,.32.24A.5.5,0,0,1,603.12,214Z"/><path class="cls-18" d="M603.1,215.5a.13.13,0,0,1-.07.1c-.1.06-.27,0-.38-.21s-.1-.38,0-.44l.09,0a.43.43,0,0,0,.07.35A.39.39,0,0,0,603.1,215.5Z"/><path class="cls-15" d="M603.1,215.5a.39.39,0,0,1-.29-.23.2.2,0,1,1,.22-.11A.46.46,0,0,1,603.1,215.5Z"/><path class="cls-18" d="M601.81,214.74a.13.13,0,0,1-.07.1c-.1.06-.28,0-.37-.22s-.11-.38,0-.44h.07a.52.52,0,0,0,.07.34A.43.43,0,0,0,601.81,214.74Z"/><path class="cls-15" d="M601.81,214.74a.43.43,0,0,1-.3-.23.52.52,0,0,1-.07-.34.43.43,0,0,1,.31.23A.45.45,0,0,1,601.81,214.74Z"/><path class="cls-18" d="M601.83,213.26a.13.13,0,0,1-.07.1c-.11.07-.28,0-.37-.22s-.12-.38,0-.44a.06.06,0,0,1,.07,0,.45.45,0,0,0,.07.34A.42.42,0,0,0,601.83,213.26Z"/><path class="cls-15" d="M601.83,213.26a.42.42,0,0,1-.31-.24.45.45,0,0,1-.07-.34.41.41,0,0,1,.31.24A.52.52,0,0,1,601.83,213.26Z"/><path class="cls-14" d="M603.47,211c-.26.34-.73.39-1.25.09a3.21,3.21,0,0,1-1.43-2.22,3.63,3.63,0,0,1,.42.1,3.31,3.31,0,0,0,1.36,1.87A1.15,1.15,0,0,0,603.47,211Z"/><path class="cls-15" d="M603.65,210.55a1.18,1.18,0,0,1-.18.47,1.15,1.15,0,0,1-.9-.16,3.31,3.31,0,0,1-1.36-1.87,4.5,4.5,0,0,1,1,.43A6.83,6.83,0,0,1,603.65,210.55Z"/><path class="cls-14" d="M605.43,218.94a2.14,2.14,0,0,1-1.9.46c-.29-.86-.14-1.61.39-1.81,0,0,0,0,0,0a1.77,1.77,0,0,0-.06,1.57A2.25,2.25,0,0,0,605.43,218.94Z"/><path class="cls-15" d="M605.74,218.61a2,2,0,0,1-.31.33,2.25,2.25,0,0,1-1.54.2,1.77,1.77,0,0,1,.06-1.57C604.49,217.41,605.22,217.85,605.74,218.61Z"/><path class="cls-14" d="M606.31,216.52v.21a3.16,3.16,0,0,1-1.55-2c-.2-.82,0-1.44.5-1.59a1.62,1.62,0,0,0-.14,1.33,3.38,3.38,0,0,0,1.19,1.84Z"/><path class="cls-15" d="M606.31,216.27a3.38,3.38,0,0,1-1.19-1.84,1.62,1.62,0,0,1,.14-1.33l.17,0A8.26,8.26,0,0,1,606.31,216.27Z"/><path class="cls-14" d="M601.08,217.44a1.08,1.08,0,0,1-.15.48,9.76,9.76,0,0,1-2.22-3.35,1,1,0,0,1,.45,0A9.85,9.85,0,0,0,601.08,217.44Z"/><path class="cls-15" d="M601.08,217.44a9.85,9.85,0,0,1-1.92-2.89,2.28,2.28,0,0,1,1.39,1.1A2.92,2.92,0,0,1,601.08,217.44Z"/><path class="cls-14" d="M599.58,212c-.3.4-.88.38-1.46,0v-.21a3.06,3.06,0,0,1,.9-2.43l.05.06a3.46,3.46,0,0,0-.59,2.11v.21A1.31,1.31,0,0,0,599.58,212Z"/><path class="cls-15" d="M599.71,211.77a.84.84,0,0,1-.13.27,1.31,1.31,0,0,1-1.1-.3v-.21a3.46,3.46,0,0,1,.59-2.11A2.73,2.73,0,0,1,599.71,211.77Z"/><path class="cls-23" d="M623.54,177.58l-35.89-20.73V206l7.1,4.09c0-4.89,3.44-6.88,7.67-4.43a17,17,0,0,1,7.69,13.3l21.75,12.56.23-27.21Z"/><polygon class="cls-24" points="627.38 210.27 627.38 211.5 615.41 204.62 615.41 192.51 605.03 186.53 605.03 170.94 606.02 171.51 606.02 185.92 616.4 191.91 616.4 204.01 627.38 210.27"/><polygon class="cls-25" points="627.38 199.42 627.38 210.27 616.4 204.01 616.4 191.91 606.02 185.92 606.02 171.51 621.27 180.32 627.38 199.42"/><path class="cls-16" d="M610.09,193.12c0,.45-1,.24-2.18-.46s-2.19-1.63-2.19-2.07,1-.24,2.19.46S610.09,192.68,610.09,193.12Z"/><polygon class="cls-16" points="600.93 183.63 590.84 177.8 590.84 162.22 600.93 168.05 600.93 183.63"/><polygon class="cls-26" points="670.05 209.48 670.29 182.27 632.09 204.32 631.86 231.53 670.05 209.48"/><polygon class="cls-23" points="670.29 182.27 661.73 155.53 623.54 177.58 632.09 204.32 670.29 182.27"/><polygon class="cls-24" points="669.02 182.2 633.19 202.89 632.93 202.08 667.94 181.86 660.18 157.59 661 157.12 669.02 182.2"/><polygon class="cls-27" points="667.94 181.86 632.93 202.08 625.17 177.8 660.18 157.59 667.94 181.86"/><polygon class="cls-28" points="659.14 158.46 658.92 158.32 646.44 165.53 654.26 170.04 654.26 172.1 661.73 176.42 661.73 185.45 665.24 183.43 665.24 177.56 659.14 158.46"/><polygon class="cls-8" points="671.99 204.6 633.75 226.68 633.75 232.63 671.99 210.55 671.99 204.6"/><polygon class="cls-6" points="670.11 203.51 631.86 225.59 633.75 226.68 671.99 204.61 670.11 203.51"/><polygon class="cls-7" points="633.75 232.63 631.86 231.53 631.86 225.59 633.75 226.68 633.75 232.63"/><polygon class="cls-29" points="623.54 177.58 587.64 156.85 625.83 134.8 661.73 155.53 623.54 177.58"/><path class="cls-16" d="M630.36,224.34,614,215.08l.19-7.61L602.94,201V167.12L623,178.75l.05.14L630.36,202Zm-15.6-9.7,14.85,8.42v-21l-7.19-22.81-18.74-10.84v32.14L615,207Z"/><polygon class="cls-30" points="638.37 216.31 634.38 218.61 634.38 214 638.37 211.7 638.37 216.31"/><polygon class="cls-31" points="642.37 214 638.37 216.31 638.37 211.7 642.37 209.39 642.37 214"/><polygon class="cls-31" points="664.44 201.26 660.45 203.56 660.45 198.95 664.44 196.65 664.44 201.26"/><polygon class="cls-30" points="668.43 198.95 664.44 201.26 664.44 196.65 668.43 194.34 668.43 198.95"/><polygon class="cls-32" points="658.94 207.62 643.98 216.25 643.98 202.98 658.94 194.34 658.94 207.62"/><polygon class="cls-33" points="632.93 202.08 667.94 181.86 665.5 178.61 662.46 180.37 659.71 178.78 646.38 186.47 646.38 189.65 631.65 198.15 632.93 202.08"/><path class="cls-9" d="M624.58,187.55a.68.68,0,0,0-.29-.51.2.2,0,0,0-.22,0l-1.52.85.41.73,1.54-.87h0A.2.2,0,0,0,624.58,187.55Z"/><path class="cls-34" d="M623.05,188.42a.19.19,0,0,1-.3.17.63.63,0,0,1-.3-.51c0-.19.13-.26.3-.17A.67.67,0,0,1,623.05,188.42Z"/><polygon class="cls-6" points="623.07 186.21 619.88 188.05 619.33 187.73 622.51 185.88 623.07 186.21"/><polygon class="cls-7" points="619.88 196.01 619.33 195.69 619.33 187.73 619.88 188.05 619.88 196.01"/><polygon class="cls-8" points="623.07 194.18 619.88 196.01 619.88 188.05 623.07 186.21 623.07 194.18"/><polygon class="cls-8" points="71.76 149.06 16.8 180.77 16.8 186.7 71.76 155 71.76 149.06"/><polygon class="cls-6" points="69.88 147.97 14.92 179.68 16.8 180.77 71.76 149.06 69.88 147.97"/><polygon class="cls-7" points="16.8 186.7 14.92 185.6 14.92 179.68 16.8 180.77 16.8 186.7"/><polygon class="cls-11" points="101.19 148.94 24.07 193.48 38.15 201.6 39.43 216.59 63.95 216.59 110.55 243.4 110.55 257.79 169.96 257.79 229.59 223.4 101.19 148.94"/><polygon points="27.28 189.04 27.28 192 35.75 187.12 31.08 184.54 27.28 189.04"/><polygon points="97.53 230.74 97.53 233.72 105.98 228.82 101.32 226.25 97.53 230.74"/><path class="cls-8" d="M115.91,250.89c0,6.16-4.32,8.65-9.65,5.57s-9.65-10.57-9.65-16.72,4.31-8.64,9.65-5.57S115.91,244.74,115.91,250.89Z"/><path class="cls-13" d="M124.72,245.8c0-6.15-4.32-13.64-9.65-16.72-2.61-1.5-5-1.67-6.71-.74h0l-8.87,5.12c1.74-1,4.13-.81,6.77.71,5.33,3.08,9.65,10.57,9.65,16.72,0,3-1,5.06-2.61,6.12h0l8.79-5.08h0C123.72,250.87,124.72,248.76,124.72,245.8Z"/><path class="cls-14" d="M116.31,250.67c0-6.17-4.32-13.65-9.66-16.73-2.6-1.52-5-1.68-6.7-.75l-.46.27c1.74-1,4.13-.81,6.77.71,5.33,3.08,9.65,10.57,9.65,16.72,0,3-1,5.06-2.61,6.12h0l.39-.23S116.31,255.27,116.31,250.67Z"/><path class="cls-15" d="M119.19,249c0-6.16-4.32-13.64-9.66-16.73-2.61-1.5-5-1.67-6.7-.74l-.46.27c1.74-1,4.13-.81,6.77.71,5.32,3.07,9.65,10.56,9.65,16.72,0,2.95-1,5.06-2.61,6.11h0l.39-.22S119.19,253.62,119.19,249Z"/><path class="cls-15" d="M122.16,247.29c0-6.17-4.33-13.65-9.66-16.72-2.6-1.5-5-1.69-6.7-.75l-.46.28c1.74-1,4.13-.81,6.77.7,5.32,3.08,9.65,10.57,9.65,16.72,0,2.95-1,5.06-2.61,6.11h0l.39-.23S122.16,251.89,122.16,247.29Z"/><path class="cls-8" d="M118,250.24l-1.29-2.08.75-2.2-1.77-1.67.44-2.37-2.18-1.27.23-2.46-2.52-.77-.25-2.34-2.57-.37-.6-1.69-3.14-.36-1-.89s-2.29.6-2.92.81a7,7,0,0,0-.68.3h0l-.38.21a5,5,0,0,1,1-.41l2.65-.73,1,.91,3.1.33.58,1.69,2.6.39.2,2.29,2.51.75-.19,2.51,2.16,1.23-.45,2.32L117.1,246l-.73,2.24,1.27,2-1.2,1.88.6,1.31-1.62,1.65-.24.82.31-.18.11-.62,1.7-1.71-.57-1.32Z"/><path class="cls-8" d="M121.08,248.45l-1.29-2.08.75-2.21-1.77-1.66.44-2.36L117,238.85l.22-2.46-2.51-.77-.24-2.34-2.58-.37-.6-1.69-3.14-.35-1-.88s-2.3.59-2.92.79a4.57,4.57,0,0,0-.67.31h0l-.38.2a4.77,4.77,0,0,1,1-.4l2.67-.74,1,.92,3.09.33.58,1.69,2.6.38.2,2.29,2.52.74-.2,2.53,2.16,1.23-.45,2.31,1.78,1.67-.73,2.24,1.28,2-1.21,1.87.6,1.31-1.62,1.65-.23.82.31-.17.1-.62,1.71-1.72-.58-1.32Z"/><path class="cls-8" d="M124.15,246.67l-1.29-2.08.76-2.2-1.77-1.68.44-2.37-2.19-1.26.23-2.47-2.52-.76-.24-2.34-2.58-.37-.59-1.69-3.14-.35-1-.89s-2.29.59-2.92.8a5.79,5.79,0,0,0-.67.31h0l-.38.22a3.51,3.51,0,0,1,1-.41c.55-.17,2.66-.73,2.66-.73l1,.9,3.1.32.58,1.7,2.6.39.2,2.29,2.51.75-.19,2.51,2.16,1.24-.45,2.32,1.78,1.66-.74,2.22,1.28,2-1.21,1.88.6,1.32-1.62,1.65-.22.83.3-.19.11-.62,1.7-1.71-.57-1.33Z"/><path class="cls-9" d="M113.11,249.27c0,4.37-3.07,6.14-6.85,4a15.16,15.16,0,0,1-6.85-11.86c0-4.38,3.07-6.15,6.85-4A15.13,15.13,0,0,1,113.11,249.27Z"/><path class="cls-16" d="M112.24,248.77c0,3.81-2.68,5.36-6,3.45a13.19,13.19,0,0,1-6-10.36c0-3.81,2.68-5.36,6-3.44A13.19,13.19,0,0,1,112.24,248.77Z"/><path class="cls-17" d="M108.37,246.54c0,1.35-1,1.9-2.11,1.22a4.66,4.66,0,0,1-2.12-3.66c0-1.35,1-1.9,2.12-1.23A4.71,4.71,0,0,1,108.37,246.54Z"/><path class="cls-14" d="M106.81,245.64c0,.36-.24.5-.55.32a1.21,1.21,0,0,1-.56-1c0-.35.24-.5.56-.32A1.24,1.24,0,0,1,106.81,245.64Z"/><path class="cls-18" d="M107.57,245.12a.23.23,0,0,1-.09.15c-.16.09-.41-.05-.56-.32s-.16-.55,0-.64a.1.1,0,0,1,.11,0,.59.59,0,0,0,.1.49A.61.61,0,0,0,107.57,245.12Z"/><path class="cls-15" d="M107.57,245.12a.61.61,0,0,1-.44-.34.59.59,0,0,1-.1-.49.62.62,0,0,1,.45.33A.74.74,0,0,1,107.57,245.12Z"/><path class="cls-18" d="M107.55,247.29a.16.16,0,0,1-.1.13c-.15.1-.4,0-.56-.31s-.15-.55,0-.65l.12,0a.66.66,0,0,0,.1.5A.58.58,0,0,0,107.55,247.29Z"/><path class="cls-15" d="M107.55,247.29a.58.58,0,0,1-.44-.35.66.66,0,0,1-.1-.5.61.61,0,0,1,.44.35A.7.7,0,0,1,107.55,247.29Z"/><path class="cls-18" d="M105.67,246.18a.24.24,0,0,1-.1.14c-.15.08-.4,0-.56-.32s-.15-.56,0-.64l.11,0a.74.74,0,0,0,.1.5A.64.64,0,0,0,105.67,246.18Z"/><path class="cls-15" d="M105.67,246.18a.64.64,0,0,1-.45-.35.74.74,0,0,1-.1-.5.64.64,0,0,1,.45.35A.68.68,0,0,1,105.67,246.18Z"/><path class="cls-18" d="M105.69,244a.28.28,0,0,1-.1.14c-.15.1-.4-.06-.56-.32s-.15-.56,0-.65a.2.2,0,0,1,.11,0,.74.74,0,0,0,.1.5A.63.63,0,0,0,105.69,244Z"/><path class="cls-15" d="M105.69,244a.63.63,0,0,1-.45-.36.74.74,0,0,1-.1-.5.63.63,0,0,1,.44.37A.67.67,0,0,1,105.69,244Z"/><path class="cls-14" d="M108.08,240.75a1.33,1.33,0,0,1-1.82.12,4.7,4.7,0,0,1-2.09-3.23,3.66,3.66,0,0,1,.62.14,4.76,4.76,0,0,0,2,2.72A1.72,1.72,0,0,0,108.08,240.75Z"/><path class="cls-15" d="M108.35,240.05a1.53,1.53,0,0,1-.27.7,1.72,1.72,0,0,1-1.3-.25,4.76,4.76,0,0,1-2-2.72,6.14,6.14,0,0,1,1.47.64A9.86,9.86,0,0,1,108.35,240.05Z"/><path class="cls-14" d="M111,252.3a3.16,3.16,0,0,1-2.78.67c-.42-1.24-.21-2.35.57-2.64l.05,0a2.59,2.59,0,0,0-.1,2.29A3.39,3.39,0,0,0,111,252.3Z"/><path class="cls-15" d="M111.39,251.82a2.88,2.88,0,0,1-.44.48,3.39,3.39,0,0,1-2.26.3,2.59,2.59,0,0,1,.1-2.29C109.58,250.06,110.64,250.72,111.39,251.82Z"/><path class="cls-14" d="M112.24,248.77c0,.11,0,.21,0,.31a4.68,4.68,0,0,1-2.27-3c-.29-1.19,0-2.1.73-2.3a2.3,2.3,0,0,0-.2,1.93,5,5,0,0,0,1.74,2.67C112.23,248.52,112.24,248.64,112.24,248.77Z"/><path class="cls-15" d="M112.23,248.39a5,5,0,0,1-1.74-2.67,2.3,2.3,0,0,1,.2-1.93,2,2,0,0,1,.26,0A12.16,12.16,0,0,1,112.23,248.39Z"/><path class="cls-14" d="M104.59,250.11a1.8,1.8,0,0,1-.19.69,14,14,0,0,1-3.27-4.87,1.37,1.37,0,0,1,.67,0A14.49,14.49,0,0,0,104.59,250.11Z"/><path class="cls-15" d="M104.59,250.11a14.49,14.49,0,0,1-2.79-4.22,3.45,3.45,0,0,1,2,1.61A4.1,4.1,0,0,1,104.59,250.11Z"/><path class="cls-14" d="M102.4,242.22c-.44.59-1.27.57-2.12-.05,0-.11,0-.21,0-.31a4.6,4.6,0,0,1,1.31-3.55.44.44,0,0,1,.08.11,5.09,5.09,0,0,0-.86,3.07,2.81,2.81,0,0,0,0,.3A1.82,1.82,0,0,0,102.4,242.22Z"/><path class="cls-15" d="M102.6,241.84a1,1,0,0,1-.2.38,1.82,1.82,0,0,1-1.59-.43,2.81,2.81,0,0,1,0-.3,5.09,5.09,0,0,1,.86-3.07A4,4,0,0,1,102.6,241.84Z"/><path class="cls-8" d="M44.56,209.69c0,6.17-4.32,8.65-9.65,5.58s-9.66-10.57-9.66-16.73,4.33-8.64,9.66-5.57S44.56,203.54,44.56,209.69Z"/><path class="cls-13" d="M53.37,204.61c0-6.15-4.32-13.65-9.66-16.72-2.6-1.51-5-1.68-6.7-.75h0l-8.87,5.13c1.74-1,4.12-.82,6.77.7,5.33,3.08,9.65,10.57,9.65,16.72,0,2.95-1,5.06-2.62,6.12h0l8.8-5.08h0C52.37,209.66,53.37,207.57,53.37,204.61Z"/><path class="cls-14" d="M45,209.46c0-6.16-4.32-13.64-9.65-16.72-2.6-1.5-5-1.68-6.7-.74l-.46.27c1.74-1,4.12-.82,6.77.7,5.33,3.08,9.65,10.57,9.65,16.72,0,2.95-1,5.06-2.62,6.12h0l.39-.22S45,214.07,45,209.46Z"/><path class="cls-15" d="M47.84,207.81c0-6.16-4.32-13.64-9.66-16.72-2.6-1.51-5-1.68-6.7-.74l-.47.27c1.74-1,4.13-.82,6.77.7,5.34,3.08,9.66,10.57,9.66,16.73,0,2.94-1,5.06-2.62,6.11h0l.39-.23S47.84,212.42,47.84,207.81Z"/><path class="cls-15" d="M50.8,206.09c0-6.16-4.32-13.65-9.65-16.72-2.6-1.5-5-1.67-6.7-.74l-.46.27c1.74-1,4.12-.81,6.76.7,5.33,3.09,9.66,10.57,9.66,16.72,0,3-1,5.07-2.62,6.12h0l.39-.23S50.81,210.69,50.8,206.09Z"/><path class="cls-8" d="M46.62,209.05,45.34,207l.75-2.2-1.77-1.67.43-2.36-2.18-1.28L42.8,197l-2.52-.77L40,193.89l-2.57-.38-.6-1.69-3.15-.35-1-.89s-2.3.6-2.92.81a4.13,4.13,0,0,0-.68.3h0l-.38.21a4.61,4.61,0,0,1,1-.42c.55-.16,2.66-.72,2.66-.72l1,.91,3.1.33.58,1.69,2.6.38.2,2.29,2.51.75-.19,2.52,2.16,1.22L44,203.17l1.78,1.68L45,207.08l1.27,2-1.2,1.88.6,1.31-1.62,1.65-.23.82.3-.16.11-.64,1.7-1.71-.57-1.32Z"/><path class="cls-8" d="M49.73,207.25l-1.29-2.07.75-2.22-1.77-1.67.44-2.36-2.18-1.27.22-2.48-2.52-.75-.24-2.34-2.58-.37L40,190l-3.15-.34-1-.9s-2.29.59-2.91.81a5.93,5.93,0,0,0-.68.31h0l-.38.2a7.64,7.64,0,0,1,1-.42l2.65-.73,1,.92,3.1.32.59,1.69,2.6.4.19,2.28,2.51.76-.19,2.5,2.16,1.24-.45,2.31,1.78,1.68-.73,2.23,1.28,2-1.21,1.88.6,1.31-1.62,1.65-.23.83.3-.18.11-.64,1.7-1.71-.57-1.32Z"/><path class="cls-8" d="M52.8,205.49l-1.28-2.09.75-2.21-1.78-1.67.44-2.35-2.18-1.29.23-2.47-2.52-.75-.24-2.34-2.58-.38-.59-1.69-3.14-.34-1-.9s-2.29.59-2.92.81a5.71,5.71,0,0,0-.67.3h0l-.38.22a4.09,4.09,0,0,1,1-.42l2.66-.73,1,.9,3.09.33.59,1.69,2.6.39.2,2.3,2.51.74-.2,2.51,2.16,1.24-.45,2.31,1.79,1.67-.74,2.23,1.28,2-1.21,1.87.59,1.33-1.61,1.64-.22.82.29-.16.11-.63,1.7-1.72-.56-1.31Z"/><path class="cls-9" d="M41.75,208.07c0,4.37-3.06,6.15-6.84,4a15.15,15.15,0,0,1-6.86-11.87c0-4.37,3.07-6.15,6.86-4A15.17,15.17,0,0,1,41.75,208.07Z"/><path class="cls-16" d="M40.88,207.57c0,3.82-2.67,5.37-6,3.46a13.2,13.2,0,0,1-6-10.36c0-3.81,2.67-5.35,6-3.45A13.21,13.21,0,0,1,40.88,207.57Z"/><path class="cls-17" d="M37,205.35c0,1.34-1,1.89-2.11,1.22a4.68,4.68,0,0,1-2.12-3.67c0-1.35,1-1.89,2.12-1.22A4.68,4.68,0,0,1,37,205.35Z"/><path class="cls-14" d="M35.46,204.44c0,.36-.25.5-.55.32a1.21,1.21,0,0,1-.57-1c0-.35.26-.5.57-.32A1.23,1.23,0,0,1,35.46,204.44Z"/><path class="cls-18" d="M36.22,203.93a.24.24,0,0,1-.1.14c-.15.08-.4-.06-.56-.32s-.15-.55,0-.64.07,0,.11,0a.7.7,0,0,0,.1.5A.61.61,0,0,0,36.22,203.93Z"/><path class="cls-15" d="M36.22,203.93a.61.61,0,0,1-.45-.35.7.7,0,0,1-.1-.5.65.65,0,0,1,.45.34A.73.73,0,0,1,36.22,203.93Z"/><path class="cls-18" d="M36.19,206.09c0,.06,0,.12-.09.14s-.41,0-.55-.32-.16-.54,0-.65l.1,0a.65.65,0,0,0,.11.5A.61.61,0,0,0,36.19,206.09Z"/><path class="cls-15" d="M36.19,206.09a.61.61,0,0,1-.43-.35.65.65,0,0,1-.11-.5.67.67,0,0,1,.45.35A.63.63,0,0,1,36.19,206.09Z"/><path class="cls-18" d="M34.32,205a.36.36,0,0,1-.1.14c-.16.09-.41-.06-.56-.33s-.15-.54,0-.64a.2.2,0,0,1,.11,0,.74.74,0,0,0,.1.5A.66.66,0,0,0,34.32,205Z"/><path class="cls-15" d="M34.32,205a.66.66,0,0,1-.45-.36.74.74,0,0,1-.1-.5.65.65,0,0,1,.45.36A.69.69,0,0,1,34.32,205Z"/><path class="cls-18" d="M34.33,202.83a.2.2,0,0,1-.09.13c-.16.09-.4-.05-.56-.32s-.16-.56,0-.65a.2.2,0,0,1,.11,0,.75.75,0,0,0,.1.52A.58.58,0,0,0,34.33,202.83Z"/><path class="cls-15" d="M34.33,202.83a.58.58,0,0,1-.44-.35.75.75,0,0,1-.1-.52.61.61,0,0,1,.44.36A.67.67,0,0,1,34.33,202.83Z"/><path class="cls-14" d="M36.72,199.54c-.37.5-1,.58-1.81.14a4.78,4.78,0,0,1-2.1-3.24,3.13,3.13,0,0,1,.63.14,4.76,4.76,0,0,0,2,2.73A1.59,1.59,0,0,0,36.72,199.54Z"/><path class="cls-15" d="M37,198.86a1.37,1.37,0,0,1-.28.68,1.59,1.59,0,0,1-1.29-.23,4.76,4.76,0,0,1-2-2.73,6.77,6.77,0,0,1,1.47.64A10.25,10.25,0,0,1,37,198.86Z"/><path class="cls-14" d="M39.6,211.1a3.18,3.18,0,0,1-2.79.67c-.41-1.24-.2-2.35.57-2.64l.06,0a2.53,2.53,0,0,0-.1,2.29A3.29,3.29,0,0,0,39.6,211.1Z"/><path class="cls-15" d="M40,210.62a2.54,2.54,0,0,1-.44.48,3.29,3.29,0,0,1-2.26.3,2.53,2.53,0,0,1,.1-2.29C38.23,208.86,39.3,209.52,40,210.62Z"/><path class="cls-14" d="M40.88,207.57v.31a4.59,4.59,0,0,1-2.27-3c-.29-1.2,0-2.09.73-2.3a2.3,2.3,0,0,0-.2,1.93,5,5,0,0,0,1.73,2.68C40.88,207.33,40.88,207.45,40.88,207.57Z"/><path class="cls-15" d="M40.87,207.2a5,5,0,0,1-1.73-2.68,2.3,2.3,0,0,1,.2-1.93,1.18,1.18,0,0,1,.25,0A11.73,11.73,0,0,1,40.87,207.2Z"/><path class="cls-14" d="M33.24,208.92a1.75,1.75,0,0,1-.2.68,14,14,0,0,1-3.25-4.87,1.18,1.18,0,0,1,.65,0A14.32,14.32,0,0,0,33.24,208.92Z"/><path class="cls-15" d="M33.24,208.92a14.32,14.32,0,0,1-2.8-4.22,3.43,3.43,0,0,1,2,1.6A4.22,4.22,0,0,1,33.24,208.92Z"/><path class="cls-14" d="M31.05,201c-.44.58-1.28.56-2.12-.06v-.31a4.56,4.56,0,0,1,1.3-3.56l.08.12a5,5,0,0,0-.87,3.07c0,.1,0,.21,0,.31A1.91,1.91,0,0,0,31.05,201Z"/><path class="cls-15" d="M31.25,200.64a1.66,1.66,0,0,1-.2.4,1.91,1.91,0,0,1-1.6-.43c0-.1,0-.21,0-.31a5,5,0,0,1,.87-3.07A4,4,0,0,1,31.25,200.64Z"/><polygon class="cls-15" points="102.34 146.66 71.76 133.86 16.8 165.59 47.38 178.39 102.34 146.66"/><polygon class="cls-8" points="94.52 149.25 86.1 154.12 83.29 153.06 91.71 148.2 94.52 149.25"/><polygon class="cls-14" points="86.94 153.63 86.29 154.01 83.48 152.96 84.14 152.58 86.94 153.63"/><polygon class="cls-14" points="88 153.03 87.34 153.41 84.53 152.35 85.19 151.97 88 153.03"/><polygon class="cls-14" points="89.06 152.41 88.4 152.8 85.59 151.74 86.25 151.37 89.06 152.41"/><polygon class="cls-14" points="90.12 151.8 89.46 152.18 86.64 151.12 87.31 150.75 90.12 151.8"/><polygon class="cls-14" points="91.18 151.18 90.51 151.57 87.7 150.52 88.37 150.14 91.18 151.18"/><polygon class="cls-14" points="92.23 150.57 91.58 150.96 88.77 149.91 89.42 149.52 92.23 150.57"/><polygon class="cls-14" points="93.29 149.97 92.63 150.35 89.83 149.3 90.48 148.92 93.29 149.97"/><polygon class="cls-14" points="94.35 149.36 93.69 149.74 90.88 148.69 91.54 148.31 94.35 149.36"/><polygon class="cls-8" points="61.78 168.08 53.36 172.96 50.55 171.9 58.97 167.03 61.78 168.08"/><polygon class="cls-14" points="54.2 172.46 53.54 172.84 50.74 171.79 51.39 171.4 54.2 172.46"/><polygon class="cls-14" points="55.26 171.85 54.6 172.23 51.79 171.18 52.45 170.8 55.26 171.85"/><polygon class="cls-14" points="56.32 171.23 55.66 171.62 52.85 170.57 53.51 170.19 56.32 171.23"/><polygon class="cls-14" points="57.38 170.63 56.71 171 53.91 169.95 54.57 169.57 57.38 170.63"/><polygon class="cls-14" points="58.43 170.02 57.77 170.41 54.96 169.34 55.63 168.96 58.43 170.02"/><polygon class="cls-14" points="59.49 169.41 58.83 169.8 56.02 168.73 56.68 168.35 59.49 169.41"/><polygon class="cls-14" points="60.55 168.8 59.88 169.19 57.08 168.13 57.74 167.74 60.55 168.8"/><polygon class="cls-14" points="61.61 168.18 60.94 168.57 58.13 167.52 58.8 167.13 61.61 168.18"/><polygon class="cls-35" points="47.38 178.39 59.36 167.4 122.38 203.79 127.89 224.87 127.89 224.87 127.89 250.82 119.48 245.98 114.92 233.72 103.22 227 98.11 233.64 47.06 204.16 42.81 192.21 30.29 184.99 26.1 192.07 16.8 186.7 16.8 165.59 47.38 178.39"/><polygon class="cls-36" points="74.06 192.07 74.06 193.79 49.99 179.89 60.37 170.26 60.56 170.37 51.32 178.94 74.06 192.07"/><polygon class="cls-37" points="74.06 178.16 74.06 192.07 51.32 178.94 60.56 170.37 74.06 178.16"/><polygon class="cls-36" points="98.11 207.68 78.54 196.37 78.54 180.76 79.86 181.53 79.86 195.43 97.69 205.71 98.11 207.68"/><polygon class="cls-38" points="97.69 205.71 79.86 195.43 79.86 181.53 94.19 189.79 97.69 205.71"/><polygon class="cls-36" points="124.01 222.62 104.03 211.1 99.18 192.68 101.04 193.75 105.37 210.15 123.51 220.63 124.01 222.62"/><polygon class="cls-39" points="123.51 220.63 105.37 210.15 101.04 193.75 119.53 204.41 123.51 220.63"/><path d="M68.9,194.46c0,.53,1.16,1.63,2.58,2.45s2.58,1.06,2.58.53-1.16-1.62-2.58-2.44S68.9,193.94,68.9,194.46Z"/><path d="M94,209c0,.52,1.16,1.61,2.58,2.43s2.58,1.06,2.58.54S98,210.32,96.6,209.5,94,208.45,94,209Z"/><path d="M48.08,178.64v24.14l46.5,26.85,6.81-6.11V209.41l-5-20L59.6,168.19l-.07.06Zm28.48-.16,19.51,11.26,4.9,19.54v13.63l-6.78,6L76.56,218.74ZM48.5,179l11.31-10.23,16.3,9.42v40.26l-27.61-16Z"/><polygon class="cls-15" points="177.34 172.06 114.32 135.67 59.36 167.4 122.38 203.79 177.34 172.06"/><polygon class="cls-35" points="182.84 193.14 127.89 224.87 122.38 203.79 177.34 172.06 182.84 193.14"/><polygon class="cls-36" points="180.86 192.99 129.88 222.42 129.48 220.89 179.14 192.23 174.71 175.27 176.04 174.5 180.86 192.99"/><polygon class="cls-40" points="179.14 192.23 129.48 220.89 125.05 203.93 174.71 175.27 179.14 192.23"/><polygon class="cls-41" points="182.84 219.1 127.89 250.82 127.89 224.87 182.84 193.14 182.84 219.1"/><polygon class="cls-8" points="184.73 214.28 129.77 245.99 129.77 251.92 184.73 220.22 184.73 214.28"/><polygon class="cls-6" points="182.84 213.19 127.89 244.9 129.77 245.99 184.73 214.28 182.84 213.19"/><polygon class="cls-7" points="129.77 251.92 127.89 250.82 127.89 244.9 129.77 245.99 129.77 251.92"/><polygon class="cls-15" points="115.69 233.26 101.93 225.33 100.06 226.41 96.01 235.45 97.89 234.37 102.9 228.68 113.81 234.34 120.51 249.59 122.38 248.51 115.69 233.26"/><polygon class="cls-35" points="113.81 234.34 100.06 226.41 93.37 233.93 96.01 235.45 101.03 229.76 112.12 236.03 117.25 247.84 120.51 249.59 113.81 234.34"/><polygon class="cls-15" points="43.59 191.64 29.84 183.7 27.97 184.77 25.03 194.46 26.9 193.39 31.54 187.36 41.72 192.72 47.3 207.33 49.18 206.25 43.59 191.64"/><polygon class="cls-35" points="41.72 192.72 27.97 184.77 22.38 192.94 25.03 194.46 29.67 188.44 40.02 194.42 43.87 205.41 47.3 207.33 41.72 192.72"/><polygon class="cls-42" points="176.79 189.86 163.1 181.97 173.39 176.03 176.79 189.86"/><polygon class="cls-35" points="164.1 211.21 164.1 220.03 148.51 229.03 148.51 228.1 163.41 219.5 163.41 211.6 164.1 211.21"/><polygon points="163.41 211.6 163.41 219.5 148.51 228.1 148.51 220.22 163.41 211.6"/><path class="cls-41" d="M51.3,181l-1.48-.86a.37.37,0,0,0-.35,0l-.53.32c.09-.06.19,0,.3,0l1.51.87a1.06,1.06,0,0,1,.47.82v2a.35.35,0,0,1-.11.29l.54-.3a.33.33,0,0,0,.14-.31v-2A1,1,0,0,0,51.3,181Z"/><path class="cls-35" d="M50.75,184.43l-1.5-.88a1,1,0,0,1-.47-.82v-2c0-.31.21-.43.47-.28l1.5.87a1,1,0,0,1,.47.82v2C51.22,184.45,51,184.57,50.75,184.43Z"/><path d="M50.53,182.67a1.35,1.35,0,0,0-.62-1,.42.42,0,0,0-.45,0l-2.59,1.5.87,1.51,2.58-1.51A.42.42,0,0,0,50.53,182.67Z"/><path class="cls-20" d="M47.94,184.17c0,.4-.27.55-.61.36a1.36,1.36,0,0,1-.62-1.06c0-.4.28-.56.62-.36A1.35,1.35,0,0,1,47.94,184.17Z"/><path class="cls-15" d="M41.48,188.39v-2a2,2,0,0,1,.92-1.61l4.77-3a.66.66,0,0,1,.64-.07h0l-2.08-1h0a.64.64,0,0,0-.66.05l-3.45,3.63a2,2,0,0,0-.93,1.61v2a.68.68,0,0,0,.23.59h0s.83.44.83.44h0A.65.65,0,0,1,41.48,188.39Z"/><path class="cls-41" d="M47.17,186l-4.77,3c-.51.3-.92.06-.92-.53v-2a2,2,0,0,1,.92-1.61l4.77-3c.51-.28.92-.06.92.55v2A2.06,2.06,0,0,1,47.17,186Z"/><path class="cls-43" d="M42.16,188.49a.51.51,0,0,0,.6,0l4.18-2.59a1.81,1.81,0,0,0,.8-1.4v-1.77c0-.38-.2-.59-.49-.57a.51.51,0,0,1,.22.48v1.77a1.73,1.73,0,0,1-.81,1.39l-4.16,2.61A.62.62,0,0,1,42.16,188.49Z"/><path class="cls-44" d="M42,186.23V188a.57.57,0,0,0,.2.5.62.62,0,0,0,.34-.1l4.16-2.61a1.73,1.73,0,0,0,.81-1.39v-1.77a.51.51,0,0,0-.22-.48.59.59,0,0,0-.31.1l-4.18,2.58A1.87,1.87,0,0,0,42,186.23Z"/><path class="cls-45" d="M179.61,210.28l0-8.55-5.11,3A5.5,5.5,0,0,0,172,209v5.7Z"/><path class="cls-45" d="M131.91,237.71l0-8.59,5.11-3c1.36-.79,2.48-.15,2.48,1.43v5.71Z"/><path class="cls-11" d="M119.61,145.69h-.43a3.15,3.15,0,0,0-2.28-1h-2.35v8.17h2.35a3.1,3.1,0,0,0,2.28-1h.43c2.44,0,4.41-1.34,4.41-3v-.07C124,147.05,122.05,145.69,119.61,145.69Z"/><path class="cls-41" d="M120.51,149.39v-2H108.6v2a3,3,0,0,0,1.74,2.44,9.32,9.32,0,0,0,8.42,0A3,3,0,0,0,120.51,149.39Z"/><path class="cls-35" d="M118.76,149.82a9.38,9.38,0,0,1-8.42,0c-2.32-1.35-2.32-3.52,0-4.86a9.32,9.32,0,0,1,8.42,0C121.08,146.3,121.08,148.47,118.76,149.82Z"/><path class="cls-24" d="M114.59,140.27h-.09a4.4,4.4,0,0,0-4.4,4.41v2.71h0a2.22,2.22,0,0,0,1.3,1.82,7,7,0,0,0,6.29,0,2.18,2.18,0,0,0,1.3-1.82h0v-2.71A4.4,4.4,0,0,0,114.59,140.27Z"/><path class="cls-5" d="M113.07,144.07a1.07,1.07,0,1,1-2.07-.36,1.17,1.17,0,0,1,1.24-1.07A1.18,1.18,0,0,1,113.07,144.07Z"/></g><g id="Ebene_2-2" data-name="Ebene 2"><polygon class="cls-11" points="353.67 116.49 226.03 81.44 206 93 227.09 105.17 227.09 110.07 235.57 110.07 292.98 143.22 292.98 148.32 301.83 148.32 319.77 158.68 333.91 158.68 380.33 131.88 353.67 116.49"/><polygon class="cls-46" points="280.81 132.79 288.96 128.09 288.48 123.99 280.58 125.67 280.81 132.79"/><polygon class="cls-46" points="214.53 94.52 222.67 89.82 222.19 85.72 214.29 87.4 214.53 94.52"/><polygon class="cls-8" points="248.27 54.21 201.66 81.12 201.66 87.09 248.27 60.19 248.27 54.21"/><polygon class="cls-6" points="246.37 53.12 199.76 80.02 201.66 81.12 248.27 54.21 246.37 53.12"/><polygon class="cls-7" points="201.66 87.09 199.76 86 199.76 80.02 201.66 81.12 201.66 87.09"/><path class="cls-47" d="M327.68,81.7V79.53a4.32,4.32,0,0,1,1-1.72l3.41-3.7a.71.71,0,0,1,.69-.08h0l-.65-.31h0a.66.66,0,0,0-.72.06l-5,2.9a2.23,2.23,0,0,0-1,1.73v2.17a.7.7,0,0,0,.26.62h0L328,82.36h0A.68.68,0,0,1,327.68,81.7Z"/><path class="cls-14" d="M332.08,78.58l-3.41,3.7c-.54.32-1,.06-1-.58V79.53a2.8,2.8,0,0,1,1-1.72l3.41-3.7c.35-.4,1-.06,1,.57v2.18C333.07,77.47,332.74,77.9,332.08,78.58Z"/><path class="cls-48" d="M327.41,80.78a1.5,1.5,0,0,0-.66-1.15.45.45,0,0,0-.48,0l-2.78,1.61.93,1.6,2.78-1.6A.44.44,0,0,0,327.41,80.78Z"/><path class="cls-20" d="M324.64,82.37c0,.43-.3.6-.66.38a1.44,1.44,0,0,1-.65-1.14c0-.42.29-.58.65-.38A1.48,1.48,0,0,1,324.64,82.37Z"/><path class="cls-49" d="M325.09,80.43l-1.61-.93a.33.33,0,0,0-.37,0l-.57.32a.38.38,0,0,1,.33.06l1.61.93a1.1,1.1,0,0,1,.51.88v2.18a.39.39,0,0,1-.12.31l.57-.33a.36.36,0,0,0,.16-.33V81.32A1.15,1.15,0,0,0,325.09,80.43Z"/><path class="cls-50" d="M324.48,84.14l-1.6-.93a1.1,1.1,0,0,1-.51-.88V80.15c0-.33.22-.46.51-.3l1.6.93a1.12,1.12,0,0,1,.52.89v2.18C325,84.17,324.77,84.3,324.48,84.14Z"/><path class="cls-8" d="M297.69,142.45c0,5.26-3.68,7.39-8.23,4.76s-8.24-9-8.24-14.26,3.68-7.39,8.24-4.76S297.69,137.21,297.69,142.45Z"/><path class="cls-13" d="M305.21,138.12c0-5.26-3.69-11.65-8.24-14.27-2.22-1.29-4.24-1.43-5.71-.64h0l-7.57,4.38c1.48-.83,3.52-.7,5.78.6,4.55,2.63,8.23,9,8.23,14.26,0,2.53-.85,4.32-2.23,5.22h0l7.51-4.34h0C304.36,142.44,305.21,140.64,305.21,138.12Z"/><path class="cls-14" d="M298,142.26c0-5.26-3.69-11.64-8.23-14.27-2.23-1.28-4.24-1.43-5.72-.63l-.4.23c1.48-.83,3.52-.7,5.78.6,4.55,2.63,8.23,9,8.23,14.26,0,2.53-.85,4.32-2.23,5.22h0l.33-.2S298,146.19,298,142.26Z"/><path class="cls-15" d="M300.49,140.85c0-5.25-3.69-11.64-8.24-14.27-2.22-1.28-4.24-1.43-5.72-.63l-.39.23c1.48-.83,3.52-.7,5.77.6,4.55,2.63,8.24,9,8.24,14.27,0,2.52-.85,4.31-2.23,5.22h0l.33-.2S300.5,144.78,300.49,140.85Z"/><path class="cls-15" d="M303,139.38c0-5.25-3.69-11.64-8.23-14.27-2.23-1.28-4.24-1.43-5.72-.63l-.4.23c1.49-.83,3.52-.7,5.78.6,4.54,2.63,8.23,9,8.23,14.27,0,2.52-.85,4.32-2.23,5.22h0l.32-.19S303,143.32,303,139.38Z"/><path class="cls-8" d="M299.46,141.91l-1.1-1.78.64-1.88-1.52-1.43.38-2L296,133.72l.19-2.1L294,131l-.21-2-2.19-.31-.51-1.45-2.68-.29-.84-.76s-1.95.5-2.49.69a4.91,4.91,0,0,0-.57.25h0l-.33.18a3.71,3.71,0,0,1,.85-.35l2.28-.62.88.77,2.64.28.49,1.44,2.22.34.17,2,2.14.64-.16,2.14,1.84,1-.38,2,1.52,1.43-.63,1.9,1.09,1.7-1,1.6.51,1.12-1.37,1.41-.2.7.26-.15.09-.53,1.45-1.47-.49-1.13Z"/><path class="cls-8" d="M302.1,140.37,301,138.6l.64-1.88-1.52-1.43.38-2-1.86-1.09.19-2.1-2.15-.65-.2-2-2.2-.31-.51-1.45-2.68-.3-.84-.76s-2,.51-2.49.7a4.23,4.23,0,0,0-.58.25h0l-.32.18a4.26,4.26,0,0,1,.85-.36l2.27-.62.88.78,2.65.28.49,1.44,2.22.34.17,2,2.14.64-.16,2.14,1.84,1-.38,2,1.52,1.43-.63,1.9,1.09,1.69-1,1.61.51,1.12-1.38,1.41-.19.69.25-.14.09-.54,1.46-1.46-.49-1.13Z"/><path class="cls-8" d="M304.73,138.86l-1.1-1.78.64-1.88-1.51-1.43.37-2-1.86-1.09.19-2.11-2.15-.64-.2-2-2.2-.32-.51-1.45-2.68-.29-.84-.76s-1.95.51-2.49.69a4.11,4.11,0,0,0-.57.25h0l-.33.18a4.48,4.48,0,0,1,.85-.35l2.27-.62.89.77,2.63.29.5,1.44,2.22.33.17,2,2.14.64-.16,2.15,1.85,1.05-.39,2,1.52,1.43-.63,1.91,1.1,1.69-1,1.6.51,1.12L302.54,143l-.19.7.26-.15.09-.53,1.45-1.46-.48-1.13Z"/><path class="cls-9" d="M295.3,141.08c0,3.73-2.61,5.23-5.84,3.37a12.9,12.9,0,0,1-5.85-10.12c0-3.73,2.62-5.24,5.85-3.38A12.93,12.93,0,0,1,295.3,141.08Z"/><path class="cls-16" d="M294.56,140.65c0,3.25-2.29,4.57-5.1,2.94a11.26,11.26,0,0,1-5.11-8.83c0-3.26,2.29-4.58,5.11-2.95A11.3,11.3,0,0,1,294.56,140.65Z"/><path class="cls-17" d="M291.26,138.75c0,1.14-.81,1.61-1.8,1a4,4,0,0,1-1.81-3.13c0-1.15.81-1.62,1.81-1A4,4,0,0,1,291.26,138.75Z"/><path class="cls-14" d="M289.93,138c0,.3-.21.43-.47.27a1,1,0,0,1-.48-.82c0-.31.21-.43.48-.28A1.05,1.05,0,0,1,289.93,138Z"/><path class="cls-18" d="M290.58,137.54a.22.22,0,0,1-.09.12c-.13.07-.34,0-.47-.28s-.13-.47,0-.55a.14.14,0,0,1,.09,0,.59.59,0,0,0,.09.42A.51.51,0,0,0,290.58,137.54Z"/><path class="cls-15" d="M290.58,137.54a.51.51,0,0,1-.38-.3.59.59,0,0,1-.09-.42.5.5,0,0,1,.38.29A.59.59,0,0,1,290.58,137.54Z"/><path class="cls-18" d="M290.56,139.38a.14.14,0,0,1-.09.12c-.13.08-.34,0-.47-.27s-.13-.47,0-.55l.09,0a.61.61,0,0,0,.09.43A.5.5,0,0,0,290.56,139.38Z"/><path class="cls-15" d="M290.56,139.38a.5.5,0,0,1-.38-.29.61.61,0,0,1-.09-.43.52.52,0,0,1,.38.3A.58.58,0,0,1,290.56,139.38Z"/><path class="cls-18" d="M289,138.43a.25.25,0,0,1-.09.13c-.14.07-.35-.05-.48-.28s-.13-.47,0-.54a.17.17,0,0,1,.1,0,.62.62,0,0,0,.08.42A.52.52,0,0,0,289,138.43Z"/><path class="cls-15" d="M289,138.43a.52.52,0,0,1-.39-.3.62.62,0,0,1-.08-.42.55.55,0,0,1,.38.3A.58.58,0,0,1,289,138.43Z"/><path class="cls-18" d="M289,136.59a.17.17,0,0,1-.08.12c-.13.08-.35,0-.48-.27s-.14-.48,0-.56a.16.16,0,0,1,.1,0,.53.53,0,0,0,.08.42A.51.51,0,0,0,289,136.59Z"/><path class="cls-15" d="M289,136.59a.51.51,0,0,1-.38-.3.53.53,0,0,1-.08-.42.51.51,0,0,1,.37.3A.58.58,0,0,1,289,136.59Z"/><path class="cls-14" d="M291,133.8c-.32.42-.9.49-1.55.11a4.1,4.1,0,0,1-1.8-2.76,2.62,2.62,0,0,1,.54.12,4.07,4.07,0,0,0,1.7,2.32A1.4,1.4,0,0,0,291,133.8Z"/><path class="cls-15" d="M291.24,133.21a1.38,1.38,0,0,1-.23.59,1.4,1.4,0,0,1-1.11-.21,4.07,4.07,0,0,1-1.7-2.32,5.37,5.37,0,0,1,1.26.54A8.56,8.56,0,0,1,291.24,133.21Z"/><path class="cls-14" d="M293.46,143.66a2.68,2.68,0,0,1-2.37.57c-.36-1.06-.18-2,.48-2.25l.05,0a2.2,2.2,0,0,0-.09,1.95A2.82,2.82,0,0,0,293.46,143.66Z"/><path class="cls-15" d="M293.84,143.25a2.5,2.5,0,0,1-.38.41,2.82,2.82,0,0,1-1.93.25,2.2,2.2,0,0,1,.09-1.95C292.29,141.76,293.2,142.31,293.84,143.25Z"/><path class="cls-14" d="M294.56,140.65a2.35,2.35,0,0,1,0,.26,4,4,0,0,1-1.93-2.55c-.25-1,0-1.78.63-2a1.93,1.93,0,0,0-.18,1.66,4.11,4.11,0,0,0,1.48,2.27C294.56,140.44,294.56,140.54,294.56,140.65Z"/><path class="cls-15" d="M294.55,140.32a4.11,4.11,0,0,1-1.48-2.27,1.93,1.93,0,0,1,.18-1.66.64.64,0,0,1,.2,0A10.17,10.17,0,0,1,294.55,140.32Z"/><path class="cls-14" d="M288,141.8a1.65,1.65,0,0,1-.17.58,11.79,11.79,0,0,1-2.78-4.16,1,1,0,0,1,.56,0A12.56,12.56,0,0,0,288,141.8Z"/><path class="cls-15" d="M288,141.8a12.56,12.56,0,0,1-2.39-3.6,2.92,2.92,0,0,1,1.74,1.36A3.65,3.65,0,0,1,288,141.8Z"/><path class="cls-14" d="M286.17,135.07c-.38.49-1.09.47-1.81-.06a2.09,2.09,0,0,1,0-.25,3.85,3.85,0,0,1,1.12-3l.07.08a4.3,4.3,0,0,0-.74,2.63,2,2,0,0,0,0,.25A1.59,1.59,0,0,0,286.17,135.07Z"/><path class="cls-15" d="M286.33,134.73a1.19,1.19,0,0,1-.16.34,1.59,1.59,0,0,1-1.36-.38,2,2,0,0,1,0-.25,4.3,4.3,0,0,1,.74-2.63A3.42,3.42,0,0,1,286.33,134.73Z"/><path class="cls-8" d="M231.49,104.23c0,5.26-3.69,7.38-8.24,4.76S215,100,215,94.72s3.68-7.38,8.24-4.75S231.49,99,231.49,104.23Z"/><path class="cls-13" d="M239,99.89c0-5.25-3.69-11.64-8.24-14.27-2.22-1.28-4.23-1.43-5.71-.63h0l-7.58,4.38c1.49-.83,3.53-.7,5.78.6,4.55,2.62,8.24,9,8.24,14.26,0,2.52-.85,4.32-2.23,5.22h0l7.5-4.33h0C238.15,104.21,239,102.42,239,99.89Z"/><path class="cls-14" d="M231.83,104c0-5.25-3.69-11.64-8.24-14.26-2.22-1.29-4.24-1.43-5.72-.64l-.4.24c1.49-.83,3.53-.7,5.78.6,4.55,2.62,8.24,9,8.24,14.26,0,2.52-.85,4.32-2.23,5.22h0l.32-.19S231.83,108,231.83,104Z"/><path class="cls-15" d="M234.28,102.63c0-5.26-3.69-11.65-8.24-14.27-2.22-1.29-4.23-1.43-5.71-.63l-.4.22c1.49-.83,3.53-.69,5.78.6,4.55,2.64,8.23,9,8.23,14.27,0,2.52-.85,4.32-2.23,5.22h0l.33-.19S234.29,106.56,234.28,102.63Z"/><path class="cls-15" d="M236.82,101.16c0-5.26-3.69-11.64-8.24-14.27-2.22-1.28-4.24-1.43-5.72-.63l-.4.23c1.49-.84,3.53-.7,5.78.6,4.55,2.63,8.24,9,8.24,14.27,0,2.52-.85,4.31-2.23,5.21h0l.33-.2S236.82,105.09,236.82,101.16Z"/><path class="cls-8" d="M233.25,103.68l-1.1-1.78.64-1.87-1.51-1.43.38-2-1.87-1.09.2-2.1-2.15-.65-.21-2-2.19-.31L224.93,89l-2.69-.29-.83-.77s-2,.51-2.5.69a4.94,4.94,0,0,0-.57.26h0l-.32.18a4,4,0,0,1,.85-.36l2.27-.62.88.78,2.64.28.5,1.44,2.22.33.16,2,2.15.64-.17,2.14,1.85,1-.39,2,1.52,1.42-.62,1.91,1.09,1.69-1,1.6.51,1.13-1.38,1.4-.2.7.26-.14.09-.54,1.45-1.46-.48-1.13Z"/><path class="cls-8" d="M235.9,102.15l-1.1-1.77.64-1.89-1.52-1.43.38-2L232.44,94l.19-2.1-2.14-.65-.21-2-2.2-.32-.5-1.44-2.69-.3-.84-.76s-2,.51-2.49.69a4.91,4.91,0,0,0-.57.25h0l-.33.19a4.26,4.26,0,0,1,.85-.36l2.27-.62.88.77,2.65.29L227.8,89l2.22.33.17,1.95,2.14.64-.16,2.15,1.85,1-.39,2,1.52,1.43-.63,1.91,1.1,1.69-1,1.6.51,1.12-1.38,1.41-.19.7.25-.14.1-.54,1.45-1.46-.49-1.13Z"/><path class="cls-8" d="M238.52,100.63l-1.1-1.77.64-1.88-1.51-1.43.38-2-1.87-1.09.2-2.11-2.16-.64-.2-2-2.2-.31-.5-1.45-2.69-.29-.83-.76s-2,.5-2.5.69a4.11,4.11,0,0,0-.57.25h0l-.32.18a3.71,3.71,0,0,1,.85-.35c.47-.14,2.27-.62,2.27-.62l.88.77,2.64.29.5,1.43,2.22.34.16,2,2.15.64-.17,2.14,1.85,1-.39,2,1.52,1.43-.62,1.9,1.09,1.7-1,1.59.51,1.13-1.38,1.41-.2.69.26-.14.1-.53,1.44-1.47-.48-1.12Z"/><path class="cls-9" d="M229.09,102.85c0,3.73-2.62,5.24-5.84,3.38A12.94,12.94,0,0,1,217.4,96.1c0-3.72,2.62-5.24,5.85-3.37A12.93,12.93,0,0,1,229.09,102.85Z"/><path class="cls-16" d="M228.35,102.43c0,3.25-2.28,4.57-5.1,2.94a11.29,11.29,0,0,1-5.1-8.84c0-3.25,2.28-4.57,5.1-3A11.29,11.29,0,0,1,228.35,102.43Z"/><path class="cls-17" d="M225.05,100.52c0,1.15-.81,1.62-1.8,1a4,4,0,0,1-1.81-3.12c0-1.16.81-1.62,1.81-1A4,4,0,0,1,225.05,100.52Z"/><path class="cls-14" d="M223.72,99.75c0,.3-.21.43-.47.28a1.06,1.06,0,0,1-.48-.83c0-.3.22-.42.48-.27A1,1,0,0,1,223.72,99.75Z"/><path class="cls-18" d="M224.37,99.31a.21.21,0,0,1-.08.12c-.14.08-.35-.05-.48-.27s-.13-.47,0-.55l.09,0A.58.58,0,0,0,224,99,.49.49,0,0,0,224.37,99.31Z"/><path class="cls-15" d="M224.37,99.31A.49.49,0,0,1,224,99a.58.58,0,0,1-.09-.42.54.54,0,0,1,.39.3A.62.62,0,0,1,224.37,99.31Z"/><path class="cls-18" d="M224.35,101.16a.16.16,0,0,1-.09.12c-.12.08-.34,0-.47-.27s-.12-.47,0-.55a.12.12,0,0,1,.1,0,.65.65,0,0,0,.46.72Z"/><path class="cls-15" d="M224.35,101.16a.65.65,0,0,1-.46-.72.48.48,0,0,1,.37.29A.61.61,0,0,1,224.35,101.16Z"/><path class="cls-18" d="M222.75,100.21a.23.23,0,0,1-.09.12c-.13.08-.34,0-.47-.27s-.14-.47,0-.55a.13.13,0,0,1,.09,0,.62.62,0,0,0,.08.42A.54.54,0,0,0,222.75,100.21Z"/><path class="cls-15" d="M222.75,100.21a.54.54,0,0,1-.39-.3.62.62,0,0,1-.08-.42.5.5,0,0,1,.38.29A.61.61,0,0,1,222.75,100.21Z"/><path class="cls-18" d="M222.76,98.36a.17.17,0,0,1-.08.13c-.13.08-.35,0-.48-.27s-.13-.48,0-.56.06,0,.09,0a.58.58,0,0,0,.1.43A.48.48,0,0,0,222.76,98.36Z"/><path class="cls-15" d="M222.76,98.36a.48.48,0,0,1-.37-.29.58.58,0,0,1-.1-.43.52.52,0,0,1,.38.3A.5.5,0,0,1,222.76,98.36Z"/><path class="cls-14" d="M224.8,95.57c-.32.43-.89.49-1.55.12a4.08,4.08,0,0,1-1.79-2.76A3.7,3.7,0,0,1,222,93a4,4,0,0,0,1.7,2.33A1.36,1.36,0,0,0,224.8,95.57Z"/><path class="cls-15" d="M225,95a1.23,1.23,0,0,1-.24.58,1.36,1.36,0,0,1-1.1-.2A4,4,0,0,1,222,93a5.76,5.76,0,0,1,1.25.54A9,9,0,0,1,225,95Z"/><path class="cls-14" d="M227.25,105.44a2.71,2.71,0,0,1-2.37.56c-.35-1.06-.18-2,.48-2.25h0a2.2,2.2,0,0,0-.09,2A2.93,2.93,0,0,0,227.25,105.44Z"/><path class="cls-15" d="M227.63,105a2.46,2.46,0,0,1-.38.41,2.93,2.93,0,0,1-1.93.25,2.2,2.2,0,0,1,.09-2C226.08,103.53,227,104.08,227.63,105Z"/><path class="cls-14" d="M228.35,102.43v.25a3.94,3.94,0,0,1-1.94-2.54c-.25-1,0-1.79.63-2a2,2,0,0,0-.18,1.65,4.25,4.25,0,0,0,1.48,2.28C228.35,102.21,228.35,102.32,228.35,102.43Z"/><path class="cls-15" d="M228.34,102.1a4.25,4.25,0,0,1-1.48-2.28,2,2,0,0,1,.18-1.65l.21,0A10.37,10.37,0,0,1,228.34,102.1Z"/><path class="cls-14" d="M221.83,103.57a1.56,1.56,0,0,1-.17.59,11.88,11.88,0,0,1-2.78-4.16,1.05,1.05,0,0,1,.56,0A12.29,12.29,0,0,0,221.83,103.57Z"/><path class="cls-15" d="M221.83,103.57a12.29,12.29,0,0,1-2.39-3.6,3,3,0,0,1,1.74,1.37A3.62,3.62,0,0,1,221.83,103.57Z"/><path class="cls-14" d="M220,96.84c-.37.5-1.09.48-1.81,0v-.26a3.88,3.88,0,0,1,1.11-3l.07.09a4.27,4.27,0,0,0-.74,2.62,2.17,2.17,0,0,0,0,.26A1.55,1.55,0,0,0,220,96.84Z"/><path class="cls-15" d="M220.13,96.51a1,1,0,0,1-.17.33,1.55,1.55,0,0,1-1.36-.37,2.17,2.17,0,0,1,0-.26,4.27,4.27,0,0,1,.74-2.62A3.44,3.44,0,0,1,220.13,96.51Z"/><polygon class="cls-51" points="271.61 49.07 248.27 38.78 201.66 65.69 225 75.98 271.61 49.07"/><path class="cls-45" d="M280.8,108.2,269,83.73,236.81,65.15,225,76h0L201.66,65.69v21.4l12.87,7.43c0-.13,0-.27,0-.4,0-5.7,4-8,8.94-5.16s8.94,9.78,8.94,15.48c0,.13,0,.26,0,.39l48.42,28c0-.14,0-.27,0-.4,0-5.7,4-8,8.94-5.16s8.94,9.78,8.94,15.48c0,.13,0,.26,0,.39l13.87,8V133.48Z"/><polygon class="cls-51" points="315.6 56.82 283.42 38.24 236.82 65.15 268.99 83.73 315.6 56.82"/><polygon class="cls-51" points="359.15 106.57 327.41 81.29 280.8 108.2 312.54 133.48 359.15 106.57"/><polygon class="cls-52" points="359.15 124.2 359.15 106.57 312.54 133.48 312.54 151.11 359.15 124.2"/><polygon class="cls-24" points="278.23 106.71 254.88 93.24 254.88 77.83 255.73 78.31 255.73 92.74 277.58 105.36 278.23 106.71"/><polygon class="cls-53" points="277.58 105.36 255.73 92.74 255.73 78.31 268 85.41 277.58 105.36"/><polygon class="cls-24" points="252.67 90.98 252.67 91.96 229.71 78.7 239.94 69.21 240.15 69.32 230.56 78.21 252.67 90.98"/><polygon class="cls-54" points="252.67 76.55 252.67 90.98 230.56 78.21 240.15 69.32 252.67 76.55"/><path class="cls-52" d="M268.65,84.41,239,67.29l-11.26,10.2V89.82l.13.13a22.4,22.4,0,0,1,6.55,13.36l0,.22,45.47,26.25V107.6Zm-15,29.74-18.84-10.87a23.44,23.44,0,0,0-6.65-13.56V77.87l11.05-10,14.44,8.33Zm25.88,14.95L254,114.38v-38l14.44,8.34,11.05,22.77Z"/><path class="cls-52" d="M260,99.78c0,.51-1.15.27-2.55-.54s-2.55-1.89-2.55-2.41,1.15-.27,2.55.54S260,99.26,260,99.78Z"/><path class="cls-52" d="M234.8,85.24c0,.52-1.14.28-2.54-.53s-2.55-1.89-2.55-2.41,1.15-.28,2.55.53S234.8,84.73,234.8,85.24Z"/><polygon class="cls-52" points="327.41 81.29 280.8 108.2 268.99 83.73 315.6 56.82 327.41 81.29"/><polygon class="cls-24" points="326.36 80.97 281.33 106.97 280.77 105.82 325.06 80.25 314.57 58.53 315.31 58.1 326.36 80.97"/><polygon class="cls-55" points="325.06 80.25 280.77 105.82 270.28 84.1 314.57 58.53 325.06 80.25"/><polygon class="cls-56" points="324.04 78.54 302.18 65.92 302.18 65.69 314.45 58.58 324.04 78.54"/><polygon class="cls-33" points="322.36 77.02 319.44 78.71 316.62 77.08 302.96 84.97 302.96 88.22 278.97 102.08 280.77 105.82 325.06 80.25 322.36 77.02"/><polygon class="cls-20" points="300.59 101.95 291.12 107.41 288.36 105.22 297.82 99.76 300.59 101.95"/><polygon class="cls-14" points="292.07 106.86 291.33 107.29 288.56 105.11 289.3 104.68 292.07 106.86"/><polygon class="cls-14" points="293.26 106.18 292.51 106.6 289.75 104.42 290.5 103.99 293.26 106.18"/><polygon class="cls-14" points="294.45 105.49 293.7 105.92 290.94 103.73 291.68 103.31 294.45 105.49"/><polygon class="cls-14" points="295.63 104.8 294.89 105.23 292.13 103.05 292.87 102.62 295.63 104.8"/><polygon class="cls-14" points="296.83 104.12 296.08 104.55 293.32 102.36 294.06 101.93 296.83 104.12"/><polygon class="cls-14" points="298.01 103.44 297.27 103.86 294.5 101.68 295.25 101.25 298.01 103.44"/><polygon class="cls-14" points="299.2 102.75 298.46 103.17 295.7 100.99 296.44 100.56 299.2 102.75"/><polygon class="cls-14" points="300.39 102.06 299.64 102.49 296.88 100.3 297.63 99.87 300.39 102.06"/><polygon class="cls-20" points="325.33 87.66 315.86 93.13 313.1 90.94 322.57 85.48 325.33 87.66"/><polygon class="cls-14" points="316.81 92.58 316.07 93.01 313.31 90.82 314.05 90.39 316.81 92.58"/><polygon class="cls-14" points="318 91.89 317.26 92.32 314.5 90.14 315.24 89.71 318 91.89"/><polygon class="cls-14" points="319.19 91.21 318.45 91.64 315.69 89.45 316.43 89.02 319.19 91.21"/><polygon class="cls-14" points="320.38 90.52 319.64 90.95 316.88 88.76 317.62 88.33 320.38 90.52"/><polygon class="cls-14" points="321.57 89.83 320.82 90.26 318.06 88.08 318.81 87.65 321.57 89.83"/><polygon class="cls-14" points="322.75 89.15 322.01 89.57 319.25 87.39 319.99 86.96 322.75 89.15"/><polygon class="cls-14" points="323.94 88.46 323.2 88.89 320.44 86.7 321.18 86.28 323.94 88.46"/><polygon class="cls-14" points="325.14 87.77 324.39 88.2 321.63 86.02 322.37 85.59 325.14 87.77"/><path class="cls-49" d="M278.44,107.36l-1.61-.93a.36.36,0,0,0-.37,0l-.57.33a.41.41,0,0,1,.33,0l1.61.93a1.15,1.15,0,0,1,.51.88v2.19a.4.4,0,0,1-.12.31l.57-.33a.35.35,0,0,0,.16-.33v-2.19A1.13,1.13,0,0,0,278.44,107.36Z"/><path class="cls-50" d="M277.83,111.07l-1.6-.93a1.13,1.13,0,0,1-.51-.88v-2.19c0-.32.23-.46.51-.29l1.6.93a1.11,1.11,0,0,1,.52.88v2.18C278.35,111.1,278.12,111.23,277.83,111.07Z"/><path class="cls-49" d="M277.59,109.21a1.44,1.44,0,0,0-.65-1.14.45.45,0,0,0-.49,0l-2.78,1.61.94,1.6,2.77-1.6A.44.44,0,0,0,277.59,109.21Z"/><path class="cls-20" d="M274.82,110.81c0,.42-.3.59-.66.38a1.46,1.46,0,0,1-.65-1.15c0-.42.29-.59.65-.38A1.47,1.47,0,0,1,274.82,110.81Z"/><path class="cls-47" d="M266.55,114.34v-2.17a2.18,2.18,0,0,1,1-1.72l6.44-2.21a.71.71,0,0,1,.69-.07h0L272.45,107h0a.71.71,0,0,0-.72.06l-5,2.91a2.18,2.18,0,0,0-1,1.72v2.17a.71.71,0,0,0,.26.62h0l.88.46h0A.69.69,0,0,1,266.55,114.34Z"/><path class="cls-14" d="M274,112.71l-6.44,2.2c-.55.32-1,.06-1-.57v-2.17a2.18,2.18,0,0,1,1-1.72l6.44-2.21c.55-.31,1-.06,1,.58V111A2.19,2.19,0,0,1,274,112.71Z"/><polygon class="cls-31" points="326.08 135.9 316.8 141.26 316.8 135 326.08 129.65 326.08 135.9"/><polygon class="cls-20" points="344.45 125.19 327.94 134.71 327.94 126.15 344.45 116.62 344.45 125.19"/><polygon class="cls-30" points="316.8 141.26 314.86 142.38 314.86 136.13 316.8 135 316.8 141.26"/><polygon class="cls-31" points="355.54 118.9 346.27 124.25 346.27 118 355.54 112.64 355.54 118.9"/><polygon class="cls-30" points="357.49 117.78 355.54 118.9 355.54 112.64 357.49 111.52 357.49 117.78"/><polygon class="cls-8" points="361.05 119.32 314.44 146.23 314.44 152.2 361.05 125.3 361.05 119.32"/><polygon class="cls-6" points="359.15 118.22 312.54 145.13 314.44 146.23 361.05 119.32 359.15 118.22"/><polygon class="cls-7" points="314.44 152.2 312.54 151.11 312.54 145.13 314.44 146.23 314.44 152.2"/><polygon class="cls-8" points="288.03 101.2 288.49 102.22 284.99 104.25 285.37 105.02 297.95 97.75 297.57 96.98 301.76 94.56 301.3 94.05 288.03 101.2"/><polygon class="cls-8" points="310.21 88.39 310.68 89.41 307.17 91.43 307.56 92.21 320.14 84.94 319.76 84.17 323.94 81.75 323.48 81.24 310.21 88.39"/><polygon class="cls-11" points="353.52 34.68 325.91 50.09 384.3 83.8 386.55 84.41 413.36 84.41 426.7 76.83 353.52 34.68"/><path class="cls-8" d="M333.1,45.33c0,4.88-3.44,6.87-7.68,4.42a17,17,0,0,1-7.67-13.29c0-4.9,3.43-6.89,7.67-4.44A17,17,0,0,1,333.1,45.33Z"/><path class="cls-13" d="M340.1,41.28A17,17,0,0,0,332.43,28c-2.07-1.19-3.95-1.33-5.33-.59h0L320,31.47c1.39-.78,3.28-.65,5.38.55a17,17,0,0,1,7.68,13.31c0,2.34-.79,4-2.08,4.86h0l7-4h0C339.31,45.31,340.1,43.63,340.1,41.28Z"/><path class="cls-14" d="M333.41,45.14a17,17,0,0,0-7.67-13.3c-2.07-1.19-3.95-1.34-5.33-.59l-.37.22c1.39-.78,3.28-.65,5.38.55a17,17,0,0,1,7.68,13.31c0,2.34-.79,4-2.08,4.86h0l.31-.18S333.42,48.8,333.41,45.14Z"/><path class="cls-15" d="M335.71,43.83A17,17,0,0,0,328,30.53c-2.07-1.19-3.95-1.33-5.33-.59l-.37.21c1.39-.77,3.28-.64,5.38.57A16.94,16.94,0,0,1,335.39,44c0,2.35-.79,4-2.08,4.86h0l.31-.18S335.71,47.49,335.71,43.83Z"/><path class="cls-15" d="M338.07,42.46a16.94,16.94,0,0,0-7.68-13.29c-2.07-1.21-3.95-1.34-5.33-.6l-.37.22c1.39-.78,3.28-.65,5.38.56a17,17,0,0,1,7.68,13.29c0,2.35-.79,4-2.08,4.86h0l.31-.17S338.07,46.13,338.07,42.46Z"/><path class="cls-8" d="M334.74,44.81l-1-1.66.6-1.74-1.42-1.34.36-1.88-1.74-1,.18-2-2-.61-.2-1.86-2-.29L327,31.11l-2.51-.28-.78-.7s-1.82.47-2.32.64a2.79,2.79,0,0,0-.53.24h0l-.31.16a4.31,4.31,0,0,1,.8-.32l2.12-.59.81.72,2.47.27.46,1.34,2.07.31.15,1.82,2,.6-.15,2,1.72,1-.36,1.84,1.42,1.32-.59,1.78,1,1.58-1,1.49.47,1-1.28,1.31-.18.65.24-.14.08-.49,1.36-1.36-.46-1.06Z"/><path class="cls-8" d="M337.21,43.38l-1-1.65.6-1.75-1.41-1.34.35-1.87-1.73-1,.18-2-2-.6L332,31.32l-2-.29-.48-1.35-2.5-.27-.78-.71s-1.82.48-2.32.64l-.54.23h0l-.3.18a2.81,2.81,0,0,1,.8-.33l2.11-.58.82.72,2.47.26.46,1.34,2.07.31.15,1.82,2,.6-.15,2,1.72,1-.37,1.85L336.51,40l-.58,1.78,1,1.57-1,1.49.47,1-1.29,1.31-.18.65.24-.13.09-.5,1.35-1.36-.45-1.06Z"/><path class="cls-8" d="M339.65,42l-1-1.65.6-1.76-1.41-1.33.35-1.88-1.74-1,.18-2-2-.61-.19-1.87-2.05-.28-.47-1.35L329.4,28l-.78-.72s-1.83.48-2.33.65a3.59,3.59,0,0,0-.53.24h0l-.3.17a3.19,3.19,0,0,1,.79-.32l2.11-.58.83.71,2.46.27.46,1.34,2.07.32.16,1.81,2,.6-.15,2,1.72,1-.36,1.84L339,38.63l-.59,1.77,1,1.58-1,1.49.47,1.05-1.28,1.31-.18.65.23-.13.09-.5,1.36-1.36-.46-1.06Z"/><path class="cls-9" d="M330.87,44c0,3.47-2.44,4.88-5.45,3.14A12,12,0,0,1,320,37.75c0-3.47,2.43-4.88,5.44-3.15A12,12,0,0,1,330.87,44Z"/><path class="cls-16" d="M330.18,43.64c0,3-2.13,4.26-4.76,2.75a10.55,10.55,0,0,1-4.75-8.24c0-3,2.13-4.27,4.75-2.75A10.49,10.49,0,0,1,330.18,43.64Z"/><path class="cls-17" d="M327.1,41.86c0,1.08-.75,1.51-1.68,1a3.72,3.72,0,0,1-1.68-2.92c0-1.07.75-1.51,1.68-1A3.75,3.75,0,0,1,327.1,41.86Z"/><path class="cls-14" d="M325.86,41.15c0,.28-.19.4-.44.26a1,1,0,0,1-.44-.77c0-.29.2-.4.44-.26A1,1,0,0,1,325.86,41.15Z"/><path class="cls-18" d="M326.47,40.74a.23.23,0,0,1-.08.11c-.12.06-.32,0-.44-.25s-.13-.45,0-.51a.08.08,0,0,1,.08,0,.54.54,0,0,0,.08.39A.49.49,0,0,0,326.47,40.74Z"/><path class="cls-15" d="M326.47,40.74a.49.49,0,0,1-.36-.28.54.54,0,0,1-.08-.39.5.5,0,0,1,.36.27A.56.56,0,0,1,326.47,40.74Z"/><path class="cls-18" d="M326.45,42.46a.18.18,0,0,1-.08.11c-.12.07-.32,0-.44-.25s-.12-.44,0-.52a.13.13,0,0,1,.09,0,.58.58,0,0,0,.08.4A.47.47,0,0,0,326.45,42.46Z"/><path class="cls-15" d="M326.45,42.46a.47.47,0,0,1-.35-.27.58.58,0,0,1-.08-.4.45.45,0,0,1,.35.27A.57.57,0,0,1,326.45,42.46Z"/><path class="cls-18" d="M325,41.57a.19.19,0,0,1-.09.12c-.12.07-.31,0-.44-.26s-.12-.44,0-.5a.16.16,0,0,1,.09,0,.56.56,0,0,0,.08.4A.48.48,0,0,0,325,41.57Z"/><path class="cls-15" d="M325,41.57a.48.48,0,0,1-.36-.27.56.56,0,0,1-.08-.4.52.52,0,0,1,.36.28A.55.55,0,0,1,325,41.57Z"/><path class="cls-18" d="M325,39.86a.18.18,0,0,1-.08.11c-.12.08-.32,0-.44-.26s-.12-.44,0-.51l.08,0a.57.57,0,0,0,.09.4A.53.53,0,0,0,325,39.86Z"/><path class="cls-15" d="M325,39.86a.53.53,0,0,1-.35-.28.57.57,0,0,1-.09-.4.5.5,0,0,1,.36.28A.57.57,0,0,1,325,39.86Z"/><path class="cls-14" d="M326.87,37.25c-.3.4-.84.46-1.45.11a3.83,3.83,0,0,1-1.67-2.58,2.8,2.8,0,0,1,.5.12,3.8,3.8,0,0,0,1.59,2.16A1.27,1.27,0,0,0,326.87,37.25Z"/><path class="cls-15" d="M327.09,36.71a1.28,1.28,0,0,1-.22.54,1.27,1.27,0,0,1-1-.19,3.8,3.8,0,0,1-1.59-2.16,4.84,4.84,0,0,1,1.17.5A7.83,7.83,0,0,1,327.09,36.71Z"/><path class="cls-14" d="M329.16,46.44a2.49,2.49,0,0,1-2.22.53c-.33-1-.16-1.87.45-2.1h.05a2,2,0,0,0-.08,1.82A2.7,2.7,0,0,0,329.16,46.44Z"/><path class="cls-15" d="M329.51,46.06a1.84,1.84,0,0,1-.35.38,2.7,2.7,0,0,1-1.8.24,2,2,0,0,1,.08-1.82C328.07,44.67,328.91,45.18,329.51,46.06Z"/><path class="cls-14" d="M330.18,43.64a1.93,1.93,0,0,1,0,.24,3.69,3.69,0,0,1-1.8-2.38c-.23-1,0-1.66.58-1.83a1.86,1.86,0,0,0-.16,1.54,3.92,3.92,0,0,0,1.38,2.13C330.18,43.44,330.18,43.54,330.18,43.64Z"/><path class="cls-15" d="M330.17,43.34a3.92,3.92,0,0,1-1.38-2.13,1.86,1.86,0,0,1,.16-1.54l.2,0A9.62,9.62,0,0,1,330.17,43.34Z"/><path class="cls-14" d="M324.1,44.71a1.36,1.36,0,0,1-.16.55,11.35,11.35,0,0,1-2.59-3.88,1.17,1.17,0,0,1,.53,0A11.49,11.49,0,0,0,324.1,44.71Z"/><path class="cls-15" d="M324.1,44.71a11.49,11.49,0,0,1-2.22-3.36,2.73,2.73,0,0,1,1.62,1.28A3.43,3.43,0,0,1,324.1,44.71Z"/><path class="cls-14" d="M322.36,38.43c-.35.48-1,.45-1.69,0v-.24a3.64,3.64,0,0,1,1-2.83l.06.08a4,4,0,0,0-.69,2.45,1.93,1.93,0,0,0,0,.24A1.44,1.44,0,0,0,322.36,38.43Z"/><path class="cls-15" d="M322.52,38.12a1,1,0,0,1-.16.31,1.44,1.44,0,0,1-1.27-.34,1.93,1.93,0,0,1,0-.24,4,4,0,0,1,.69-2.45A3.2,3.2,0,0,1,322.52,38.12Z"/><path class="cls-57" d="M338.41,21.89c-2.43-1.41-4.63-1.51-6.17-.51L319,29,333.2,41.69l13.43-7.75C345.66,29.18,342.35,24.16,338.41,21.89Z"/><path class="cls-58" d="M333.2,41.69c-1-4.76-4.29-9.78-8.23-12-4.71-2.71-8.52-.52-8.52,4.92,0,.32,0,.66,0,1Z"/><path class="cls-12" d="M371.35,52.46l-10.81-6.24-5.39-15.06.52-2.84-15.19-8.78L327,27.3l18.82,28.06,12.06,7L371.15,70l13.14-7.6c3.35-1.66,4.7-7.19,4.7-7.19Z"/><path class="cls-8" d="M342.24,36.08l-.52,2.84L347.11,54l10.81,6.24,17.63,2.72s-2.65,10.87-9.73,6.72L342,55.89S331.39,38.77,327,27.3Z"/><path class="cls-57" d="M350.72,8.48a7.66,7.66,0,0,0-7.18.67L331,16.44l11.26,19.64,13.43-7.76,3.62-10.63S356,10.62,350.72,8.48Z"/><polygon class="cls-59" points="342.24 36.08 345.86 25.45 359.36 17.6 355.67 28.32 342.24 36.08"/><path class="cls-58" d="M337.28,16.24c-7.23-3.09-12.81,6.49-12.81,6.49l1,3.68,16.75,9.67,3.62-10.63S342.55,18.37,337.28,16.24Z"/><path class="cls-60" d="M344.89,5.64a9.73,9.73,0,0,1-4.41,7.64c-2.43,1.41-4.4.26-4.4-2.55a9.75,9.75,0,0,1,4.4-7.63C342.92,1.7,344.89,2.84,344.89,5.64Z"/><path class="cls-58" d="M338.46,6.7c-1.42,2.33-2.09,5.12.37,6.87a5.47,5.47,0,0,0,6.35-8.91C342.72,2.91,340,4.51,338.46,6.7Z"/><path class="cls-61" d="M336.08,10.73a9.75,9.75,0,0,1,4.4-7.63,3.22,3.22,0,0,1,3-.38l-1.58-.92h0a3.08,3.08,0,0,0-3.11.32,9.71,9.71,0,0,0-4.41,7.62,3,3,0,0,0,1.43,2.92h0l1.57.91A3.08,3.08,0,0,1,336.08,10.73Z"/><polygon class="cls-12" points="345.86 25.45 344.6 12.28 358.03 4.54 362.43 13.79 359.29 17.69 345.86 25.45"/><path class="cls-8" d="M344.6,12.28l-4.69,5.5a24,24,0,0,1,5.95,7.67l3.14-3.9Z"/><path class="cls-8" d="M391.31,78.93c0,4.9-3.44,6.88-7.68,4.43A17,17,0,0,1,376,70.06c0-4.89,3.44-6.87,7.68-4.43A17,17,0,0,1,391.31,78.93Z"/><path class="cls-13" d="M398.31,74.88a17,17,0,0,0-7.67-13.29c-2.08-1.2-4-1.33-5.34-.6h0l-7.05,4.08c1.38-.77,3.28-.65,5.38.56a17,17,0,0,1,7.68,13.3c0,2.34-.8,4-2.08,4.86h0l7-4h0C397.51,78.91,398.31,77.24,398.31,74.88Z"/><path class="cls-14" d="M391.62,78.74a17,17,0,0,0-7.68-13.29c-2.07-1.2-3.94-1.33-5.32-.6l-.37.22c1.38-.77,3.28-.65,5.38.56a17,17,0,0,1,7.68,13.3c0,2.34-.8,4-2.08,4.86h0l.3-.18S391.62,82.41,391.62,78.74Z"/><path class="cls-15" d="M393.91,77.43a17,17,0,0,0-7.68-13.3c-2.07-1.19-4-1.33-5.33-.58l-.36.21c1.38-.78,3.28-.65,5.38.56a17,17,0,0,1,7.68,13.3c0,2.34-.8,4-2.09,4.86h0l.3-.18S393.91,81.1,393.91,77.43Z"/><path class="cls-15" d="M396.27,76.06a17,17,0,0,0-7.68-13.29c-2.06-1.2-3.94-1.34-5.32-.6l-.37.23c1.38-.79,3.28-.66,5.38.56A16.94,16.94,0,0,1,396,76.25c0,2.34-.8,4-2.08,4.86h0l.3-.17S396.27,79.73,396.27,76.06Z"/><path class="cls-8" d="M393,78.41l-1-1.65.59-1.75-1.41-1.34.35-1.87-1.73-1,.18-2-2-.6-.19-1.86-2-.3-.48-1.34-2.5-.28-.78-.71s-1.82.48-2.32.64a5.22,5.22,0,0,0-.54.24h0l-.3.17a3.74,3.74,0,0,1,.8-.33l2.11-.58.82.72,2.46.26.47,1.34,2.06.32.16,1.82,2,.59-.15,2,1.71,1-.35,1.85,1.41,1.32-.58,1.77,1,1.58-1,1.5.48,1-1.29,1.31-.18.64.24-.13.09-.5,1.35-1.36L392,79.88Z"/><path class="cls-8" d="M395.42,77l-1-1.66.6-1.75-1.41-1.33.35-1.88-1.74-1,.18-2-2-.6-.19-1.86-2.05-.3-.47-1.35-2.5-.27-.78-.71s-1.83.47-2.32.65a3.25,3.25,0,0,0-.54.23h0l-.3.17A3.66,3.66,0,0,1,382,63l2.12-.58.82.73,2.46.26.47,1.34,2.06.31.16,1.83,2,.59-.16,2,1.72,1-.36,1.85,1.42,1.32-.59,1.78,1,1.58-1,1.49.48,1-1.29,1.31-.18.66.24-.14.09-.5,1.35-1.36-.46-1Z"/><path class="cls-8" d="M397.86,75.57l-1-1.65.59-1.75L396,70.84l.35-1.87-1.73-1,.18-2-2-.6-.19-1.86-2-.3-.48-1.35-2.5-.27-.78-.71s-1.82.47-2.32.65a3.25,3.25,0,0,0-.54.23h0l-.3.18a3.32,3.32,0,0,1,.8-.34l2.11-.58.82.72,2.46.27.47,1.34,2.07.3.15,1.83,2,.59-.15,2,1.71,1-.35,1.84,1.41,1.33L396.58,74l1,1.57-.95,1.5.47,1-1.28,1.31-.19.66.24-.14.09-.49,1.35-1.37-.45-1Z"/><path class="cls-9" d="M389.08,77.64c0,3.47-2.44,4.88-5.45,3.15a12,12,0,0,1-5.45-9.44c0-3.47,2.44-4.88,5.45-3.15A12.06,12.06,0,0,1,389.08,77.64Z"/><path class="cls-16" d="M388.38,77.24c0,3-2.12,4.27-4.75,2.74a10.47,10.47,0,0,1-4.76-8.23c0-3,2.13-4.26,4.76-2.74A10.48,10.48,0,0,1,388.38,77.24Z"/><path class="cls-17" d="M385.31,75.47c0,1.07-.75,1.51-1.68,1A3.7,3.7,0,0,1,382,73.53c0-1.08.75-1.51,1.68-1A3.73,3.73,0,0,1,385.31,75.47Z"/><path class="cls-14" d="M384.07,74.76c0,.28-.2.39-.44.25a1,1,0,0,1-.45-.77c0-.28.2-.39.45-.25A1,1,0,0,1,384.07,74.76Z"/><path class="cls-18" d="M384.67,74.35a.19.19,0,0,1-.07.11c-.13.06-.32,0-.45-.26s-.12-.44,0-.51a.15.15,0,0,1,.09,0,.58.58,0,0,0,.08.4A.5.5,0,0,0,384.67,74.35Z"/><path class="cls-15" d="M384.67,74.35a.5.5,0,0,1-.35-.28.58.58,0,0,1-.08-.4.5.5,0,0,1,.36.27A.53.53,0,0,1,384.67,74.35Z"/><path class="cls-18" d="M384.66,76.06a.19.19,0,0,1-.08.11c-.12.08-.32,0-.45-.25s-.12-.44,0-.5a.11.11,0,0,1,.09,0,.58.58,0,0,0,.08.4A.5.5,0,0,0,384.66,76.06Z"/><path class="cls-15" d="M384.66,76.06a.5.5,0,0,1-.36-.27.58.58,0,0,1-.08-.4.45.45,0,0,1,.36.28A.54.54,0,0,1,384.66,76.06Z"/><path class="cls-18" d="M383.16,75.18a.15.15,0,0,1-.08.11c-.12.08-.32,0-.44-.25s-.12-.44,0-.52h.09a.5.5,0,0,0,.08.39A.49.49,0,0,0,383.16,75.18Z"/><path class="cls-15" d="M383.16,75.18a.49.49,0,0,1-.35-.28.23.23,0,1,1,.27-.11A.53.53,0,0,1,383.16,75.18Z"/><path class="cls-18" d="M383.17,73.46a.14.14,0,0,1-.07.11c-.12.08-.32,0-.45-.25s-.12-.45,0-.52l.09,0a.59.59,0,0,0,.08.41A.49.49,0,0,0,383.17,73.46Z"/><path class="cls-15" d="M383.17,73.46a.49.49,0,0,1-.35-.27.59.59,0,0,1-.08-.41.6.6,0,0,1,.43.68Z"/><path class="cls-14" d="M385.07,70.86c-.29.39-.83.46-1.44.11A3.8,3.8,0,0,1,382,68.39l.5.11a3.78,3.78,0,0,0,1.59,2.17A1.33,1.33,0,0,0,385.07,70.86Z"/><path class="cls-15" d="M385.3,70.32a.66.66,0,0,1-1.25.35,3.78,3.78,0,0,1-1.59-2.17,5.55,5.55,0,0,1,1.17.51A7.83,7.83,0,0,1,385.3,70.32Z"/><path class="cls-14" d="M387.36,80.05a2.5,2.5,0,0,1-2.21.53c-.33-1-.17-1.87.45-2.09l0,0a2.06,2.06,0,0,0-.09,1.82A2.69,2.69,0,0,0,387.36,80.05Z"/><path class="cls-15" d="M387.71,79.67a2.11,2.11,0,0,1-.35.38,2.69,2.69,0,0,1-1.8.23,2.06,2.06,0,0,1,.09-1.82C386.27,78.28,387.12,78.79,387.71,79.67Z"/><path class="cls-14" d="M388.38,77.24v.24a3.67,3.67,0,0,1-1.8-2.37c-.24-1,0-1.66.58-1.83a1.86,1.86,0,0,0-.17,1.54,4,4,0,0,0,1.39,2.12Z"/><path class="cls-15" d="M388.38,76.94A4,4,0,0,1,387,74.82a1.86,1.86,0,0,1,.17-1.54.58.58,0,0,1,.19,0A9.45,9.45,0,0,1,388.38,76.94Z"/><path class="cls-14" d="M382.31,78.31a1.62,1.62,0,0,1-.16.55A11.16,11.16,0,0,1,379.56,75a.91.91,0,0,1,.52,0A11.39,11.39,0,0,0,382.31,78.31Z"/><path class="cls-15" d="M382.31,78.31A11.39,11.39,0,0,1,380.08,75a2.83,2.83,0,0,1,1.62,1.28A3.39,3.39,0,0,1,382.31,78.31Z"/><path class="cls-14" d="M380.56,72c-.35.46-1,.44-1.68-.05a1.93,1.93,0,0,1,0-.24,3.6,3.6,0,0,1,1-2.82L380,69a4,4,0,0,0-.69,2.44,1.77,1.77,0,0,0,0,.24A1.43,1.43,0,0,0,380.56,72Z"/><path class="cls-15" d="M380.72,71.73a.76.76,0,0,1-.16.31,1.43,1.43,0,0,1-1.26-.35,1.77,1.77,0,0,1,0-.24A4,4,0,0,1,380,69,3.18,3.18,0,0,1,380.72,71.73Z"/><path class="cls-57" d="M403.89,50c-1.89-4.11-6.76-5.89-6.76-5.89L371.4,38,358,45.75l31.47,16.66,13.17-7.58C404,53.94,404.74,52.46,403.89,50Z"/><path class="cls-45" d="M402.69,51.53c-.14,1.4-2.62,3.61-5.53,4.93s-5.18,1.26-5-.14,2.62-3.6,5.54-4.92S402.83,50.13,402.69,51.53Z"/><path class="cls-58" d="M358,45.75a19,19,0,0,1,2.2,7.51,11.69,11.69,0,0,1-2.24,7l23.52,3.63s11.53,1.08,9-6.05c-1.89-4.11-6.77-5.9-6.77-5.9Z"/><path class="cls-62" d="M395.22,40.19c-1.71-.79-19.58-8.52-22.41-8.42a3.32,3.32,0,0,0-1.46.4h0l-13.79,8,27.05,13.22,13.21-7.53h0a.56.56,0,0,0,.23-.23C399,44.06,397.6,41.43,395.22,40.19Z"/><path class="cls-8" d="M356.54,44.33c-1.2-3.6,1.63-4.81,2.84-4.81,2.83-.09,20.7,7.64,22.4,8.43,2.39,1.23,3.8,3.86,2.83,5.42C383.85,55.2,365.82,52,365.82,52S357.75,47.94,356.54,44.33Z"/><polygon class="cls-63" points="371.43 64.33 369.06 62.96 367.44 63.89 369.81 65.25 371.43 64.33"/><polygon class="cls-58" points="367.44 63.89 369.81 65.25 369.81 70.12 367.44 68.76 367.44 63.89"/><polygon class="cls-57" points="371.43 69.18 369.81 70.12 369.81 65.25 371.43 64.33 371.43 69.18"/><polygon class="cls-57" points="386.29 77.03 385.06 77.74 385.06 74.38 370.21 65.8 371.43 65.09 386.29 73.67 386.29 77.03"/><polygon class="cls-58" points="385.06 77.74 370.21 69.16 370.21 65.8 385.06 74.38 385.06 77.74"/><path class="cls-8" d="M370.73,4.82a2,2,0,0,0-.89-1.55.62.62,0,0,0-.65,0h0l-7.54,4.33,1.26,2.18,7.42-4.28h0C370.57,5.4,370.73,5.18,370.73,4.82Z"/><path class="cls-13" d="M363.2,9.14c0,.57-.4.79-.89.51a1.93,1.93,0,0,1-.89-1.54c0-.57.39-.8.89-.52A2,2,0,0,1,363.2,9.14Z"/><path class="cls-26" d="M363.2,9.14a2,2,0,0,0-.89-1.54.61.61,0,0,0-.64-.06h0l-4.56,2.63,1.25,2.18,4.57-2.63h0A.64.64,0,0,0,363.2,9.14Z"/><path class="cls-64" d="M358.64,11.77c0,.57-.4.79-.89.51a2,2,0,0,1-.89-1.55c0-.57.4-.8.89-.51A2,2,0,0,1,358.64,11.77Z"/><path class="cls-26" d="M345.28,19.49a2,2,0,0,0-.89-1.54.63.63,0,0,0-.65-.06h0l-4.11,2.39,1.15,2.23L345,20.07a0,0,0,0,0,0,0h0A.62.62,0,0,0,345.28,19.49Z"/><path class="cls-8" d="M341.18,21.88a1.94,1.94,0,0,0-.89-1.54.63.63,0,0,0-.65-.06h0l-7.54,4.33,1.26,2.18,7.43-4.28h0C341,22.47,341.18,22.24,341.18,21.88Z"/><path class="cls-13" d="M333.64,26.2c0,.57-.4.8-.89.51a2,2,0,0,1-.89-1.54c0-.57.4-.8.89-.51A2,2,0,0,1,333.64,26.2Z"/><path class="cls-57" d="M360.91.91a3.16,3.16,0,0,0-1.05.17c-.12,0-13.61,7.84-13.61,7.84l.38,4.68,11.63-6.84a13.84,13.84,0,0,0,2.05,4.65,10.86,10.86,0,0,0,3.72,3.5Z"/><path class="cls-58" d="M350.59,22.67l-3.12-14c-1.55-.21-2.44,1.59-2.44,1.59-1.07,1.79-.29,5.8,1.85,8.9A10.88,10.88,0,0,0,350.59,22.67Z"/><polygon class="cls-65" points="360.91 0.91 347.47 8.67 350.59 22.67 364.03 14.91 360.91 0.91"/><path class="cls-45" d="M352.39,12.3c.16-.45.55-.51.85-.14a1.63,1.63,0,0,1,.23,1.48c-.17.45-.55.5-.85.13a1.64,1.64,0,0,1-.23-1.47Zm-1.78-2.18a7,7,0,0,0,1,6.28c1.28,1.58,2.91,1.33,3.63-.57a7,7,0,0,0-1-6.3c-1.28-1.58-2.91-1.32-3.64.59Z"/><path class="cls-45" d="M358.54,9.19a.36.36,0,0,1,.68-.1,1.29,1.29,0,0,1,.19,1.17c-.13.36-.44.4-.68.11a1.34,1.34,0,0,1-.19-1.18Zm-1.41-1.74a5.65,5.65,0,0,0,.8,5c1,1.25,2.31,1,2.89-.47a5.58,5.58,0,0,0-.8-5c-1-1.26-2.31-1-2.89.45Z"/><polygon class="cls-66" points="391.95 236.65 343.1 264.87 343.1 271.32 391.95 243.09 391.95 236.65"/><polygon class="cls-67" points="389.9 235.46 341.04 263.68 343.1 264.87 391.95 236.65 389.9 235.46"/><polygon class="cls-68" points="343.1 271.32 341.04 270.13 341.04 263.68 343.1 264.87 343.1 271.32"/><path class="cls-11" d="M419.09,234.64l-72.62,42L379,295.42v4.81h8.33l44,25.39v4.81h8.35l13.79,8h21.88L537,302.7Z"/><path class="cls-12" d="M426.35,308.87l-9.1,5.26s-3.46-5.92,3.6-8.44S426.35,308.87,426.35,308.87Z"/><path class="cls-8" d="M436.12,324.14c0,5.66-4,7.94-8.87,5.12s-8.87-9.71-8.87-15.37,4-7.95,8.87-5.12S436.12,318.48,436.12,324.14Z"/><path class="cls-13" d="M444.23,319.46c0-5.66-4-12.54-8.88-15.37-2.39-1.38-4.56-1.53-6.15-.68h0L421,308.12c1.6-.89,3.8-.75,6.22.65,4.9,2.83,8.87,9.71,8.87,15.37,0,2.71-.9,4.65-2.39,5.62h0l8.07-4.67h0C443.31,324.12,444.23,322.17,444.23,319.46Z"/><path class="cls-14" d="M436.5,323.92c0-5.66-4-12.54-8.88-15.36-2.4-1.39-4.57-1.54-6.15-.68l-.44.24c1.6-.89,3.8-.75,6.22.65,4.9,2.83,8.87,9.71,8.87,15.37,0,2.71-.9,4.65-2.39,5.62h0l.35-.21S436.5,328.16,436.5,323.92Z"/><path class="cls-15" d="M439.14,322.41c0-5.67-4-12.54-8.88-15.37-2.38-1.38-4.56-1.54-6.15-.68l-.43.25c1.6-.9,3.8-.76,6.22.64,4.9,2.83,8.88,9.71,8.88,15.37,0,2.71-.91,4.64-2.41,5.62h0l.36-.21S439.14,326.64,439.14,322.41Z"/><path class="cls-15" d="M441.87,320.82c0-5.66-4-12.53-8.88-15.36-2.39-1.38-4.56-1.54-6.15-.68l-.43.24c1.6-.89,3.8-.75,6.22.65,4.9,2.83,8.88,9.71,8.88,15.37,0,2.71-.91,4.65-2.41,5.62h0l.34-.21S441.87,325.06,441.87,320.82Z"/><path class="cls-8" d="M438,323.54l-1.19-1.91.7-2-1.64-1.55.41-2.16-2-1.18.21-2.26-2.31-.7-.22-2.15-2.38-.34-.53-1.56-2.9-.32-.89-.82s-2.11.55-2.68.74a3.89,3.89,0,0,0-.62.28h0l-.36.2a4.2,4.2,0,0,1,.93-.37c.5-.15,2.44-.68,2.44-.68l.94.84,2.85.3.54,1.55,2.38.36.18,2.11,2.32.68-.19,2.31,2,1.14-.41,2.13,1.64,1.53-.67,2.05,1.16,1.82-1.11,1.73.55,1.21L435.67,328l-.2.76.27-.16.11-.57,1.56-1.58-.52-1.21Z"/><path class="cls-8" d="M440.88,321.89,439.7,320l.7-2-1.64-1.54.4-2.16-2-1.18.21-2.26-2.31-.7-.22-2.15-2.37-.35-.54-1.56-2.9-.31-.9-.82s-2.1.55-2.69.75a3.66,3.66,0,0,0-.61.27h0l-.35.19a4.86,4.86,0,0,1,.91-.38l2.45-.67.95.84,2.85.3.53,1.55,2.4.36.17,2.1,2.31.69-.17,2.31,2,1.14-.42,2.12,1.65,1.54-.69,2,1.19,1.84-1.11,1.72.54,1.21-1.49,1.52-.2.74.27-.15.11-.58,1.56-1.57-.52-1.21Z"/><path class="cls-8" d="M443.71,320.27l-1.19-1.92.69-2-1.63-1.54.41-2.16-2-1.18.19-2.26-2.31-.7-.21-2.15-2.37-.34-.55-1.56-2.89-.32-.9-.82s-2.11.54-2.68.74a4.91,4.91,0,0,0-.62.28h0l-.35.19a4.27,4.27,0,0,1,.91-.38l2.44-.67,1,.83,2.84.31.54,1.55,2.39.36.18,2.1,2.31.7-.17,2.3,2,1.14-.41,2.12,1.64,1.54-.67,2.05,1.17,1.83L442.29,322l.54,1.22-1.48,1.51-.21.76.28-.16.1-.57,1.56-1.58-.53-1.22Z"/><path class="cls-9" d="M433.56,322.65c0,4-2.83,5.64-6.31,3.63a13.89,13.89,0,0,1-6.29-10.9c0-4,2.81-5.64,6.29-3.63A13.9,13.9,0,0,1,433.56,322.65Z"/><path class="cls-16" d="M432.75,322.18c0,3.52-2.46,4.94-5.5,3.19a12.18,12.18,0,0,1-5.49-9.53c0-3.5,2.46-4.92,5.49-3.17A12.13,12.13,0,0,1,432.75,322.18Z"/><path class="cls-17" d="M429.2,320.14c0,1.24-.86,1.74-1.95,1.12a4.3,4.3,0,0,1-1.93-3.37c0-1.24.86-1.74,1.93-1.12A4.26,4.26,0,0,1,429.2,320.14Z"/><path class="cls-14" d="M427.77,319.31c0,.33-.23.46-.52.3a1.15,1.15,0,0,1-.5-.89c0-.33.23-.46.5-.3A1.15,1.15,0,0,1,427.77,319.31Z"/><path class="cls-18" d="M428.47,318.83a.21.21,0,0,1-.1.14c-.14.08-.37-.05-.5-.3s-.15-.51,0-.59a.1.1,0,0,1,.09,0,.6.6,0,0,0,.1.46A.54.54,0,0,0,428.47,318.83Z"/><path class="cls-15" d="M428.47,318.83a.54.54,0,0,1-.41-.31.6.6,0,0,1-.1-.46.54.54,0,0,1,.41.32A.62.62,0,0,1,428.47,318.83Z"/><path class="cls-18" d="M428.45,320.82a.22.22,0,0,1-.09.13c-.15.09-.37,0-.51-.29s-.15-.51,0-.59.06,0,.09,0a.61.61,0,0,0,.1.45A.54.54,0,0,0,428.45,320.82Z"/><path class="cls-15" d="M428.45,320.82a.54.54,0,0,1-.41-.32.27.27,0,1,1,.32-.13A.65.65,0,0,1,428.45,320.82Z"/><path class="cls-18" d="M426.71,319.8a.22.22,0,0,1-.08.14c-.15.08-.38-.05-.51-.3s-.15-.51,0-.59a.13.13,0,0,1,.09,0,.69.69,0,0,0,.09.46A.61.61,0,0,0,426.71,319.8Z"/><path class="cls-15" d="M426.71,319.8a.61.61,0,0,1-.41-.31.69.69,0,0,1-.09-.46.56.56,0,0,1,.42.32A.64.64,0,0,1,426.71,319.8Z"/><path class="cls-18" d="M426.74,317.82a.36.36,0,0,1-.09.13c-.15.08-.38-.05-.52-.3s-.15-.51,0-.59l.11,0a.67.67,0,0,0,.1.47A.54.54,0,0,0,426.74,317.82Z"/><path class="cls-15" d="M426.74,317.82a.54.54,0,0,1-.41-.32.67.67,0,0,1-.1-.47.58.58,0,0,1,.41.33A.59.59,0,0,1,426.74,317.82Z"/><path class="cls-14" d="M428.92,314.81c-.33.45-1,.53-1.67.12a4.37,4.37,0,0,1-1.92-3c.19,0,.39.07.58.12a4.36,4.36,0,0,0,1.83,2.51A1.5,1.5,0,0,0,428.92,314.81Z"/><path class="cls-15" d="M429.18,314.18a1.24,1.24,0,0,1-.26.63,1.5,1.5,0,0,1-1.18-.22,4.36,4.36,0,0,1-1.83-2.51,5.55,5.55,0,0,1,1.34.59A9.1,9.1,0,0,1,429.18,314.18Z"/><path class="cls-14" d="M431.57,325.43A2.86,2.86,0,0,1,429,326c-.38-1.14-.19-2.15.52-2.42h.06a2.3,2.3,0,0,0-.1,2.09A3.06,3.06,0,0,0,431.57,325.43Z"/><path class="cls-15" d="M432,325a3.49,3.49,0,0,1-.41.44,3.06,3.06,0,0,1-2.08.27,2.3,2.3,0,0,1,.1-2.09C430.31,323.38,431.29,324,432,325Z"/><path class="cls-14" d="M432.75,322.18v.29a4.31,4.31,0,0,1-2.09-2.74c-.26-1.1,0-1.93.69-2.12a2.07,2.07,0,0,0-.2,1.78,4.45,4.45,0,0,0,1.59,2.45C432.75,322,432.75,322.08,432.75,322.18Z"/><path class="cls-15" d="M432.74,321.84a4.45,4.45,0,0,1-1.59-2.45,2.07,2.07,0,0,1,.2-1.78.71.71,0,0,1,.21,0A10.71,10.71,0,0,1,432.74,321.84Z"/><path class="cls-14" d="M425.73,323.42a1.87,1.87,0,0,1-.18.63,12.55,12.55,0,0,1-3-4.48,1.07,1.07,0,0,1,.59,0A13.3,13.3,0,0,0,425.73,323.42Z"/><path class="cls-15" d="M425.73,323.42a13.3,13.3,0,0,1-2.58-3.87A3.14,3.14,0,0,1,425,321,3.87,3.87,0,0,1,425.73,323.42Z"/><path class="cls-14" d="M423.71,316.18c-.39.53-1.16.51-1.94-.06a2.72,2.72,0,0,1,0-.28,4.22,4.22,0,0,1,1.2-3.26l.07.09a4.69,4.69,0,0,0-.78,2.83v.28A1.72,1.72,0,0,0,423.71,316.18Z"/><path class="cls-15" d="M423.9,315.82a1.75,1.75,0,0,1-.19.36,1.72,1.72,0,0,1-1.46-.4v-.28a4.69,4.69,0,0,1,.78-2.83A3.69,3.69,0,0,1,423.9,315.82Z"/><path class="cls-12" d="M373.9,278.59l-9.1,5.25s-3.46-5.91,3.59-8.43S373.9,278.59,373.9,278.59Z"/><path class="cls-8" d="M383.54,293.79c0,5.66-4,7.95-8.87,5.13s-8.86-9.71-8.86-15.37,4-7.95,8.86-5.12S383.54,288.14,383.54,293.79Z"/><path class="cls-13" d="M391.65,289.11c0-5.65-4-12.53-8.87-15.36-2.39-1.38-4.56-1.54-6.16-.68h0l-8.15,4.71c1.6-.9,3.8-.75,6.21.65,4.91,2.83,8.87,9.71,8.87,15.36,0,2.71-.9,4.66-2.38,5.62h0l8.07-4.66h0C390.73,293.78,391.65,291.83,391.65,289.11Z"/><path class="cls-14" d="M383.92,293.58c0-5.66-4-12.54-8.87-15.37-2.4-1.38-4.57-1.54-6.16-.68l-.43.25c1.6-.9,3.8-.75,6.21.65,4.91,2.83,8.87,9.71,8.87,15.36,0,2.71-.9,4.66-2.38,5.62h0l.35-.2S383.92,297.82,383.92,293.58Z"/><path class="cls-15" d="M386.57,292.06c0-5.66-4-12.54-8.88-15.36-2.39-1.38-4.57-1.54-6.15-.69l-.43.25c1.6-.89,3.79-.75,6.22.65,4.9,2.83,8.87,9.71,8.87,15.37,0,2.71-.91,4.64-2.4,5.61h0l.35-.21S386.57,296.3,386.57,292.06Z"/><path class="cls-15" d="M389.29,290.48c0-5.66-4-12.54-8.87-15.37-2.39-1.38-4.56-1.54-6.16-.68l-.43.25c1.61-.9,3.8-.75,6.23.65,4.9,2.83,8.87,9.71,8.87,15.36,0,2.72-.91,4.66-2.41,5.63h0l.35-.21S389.29,294.72,389.29,290.48Z"/><path class="cls-8" d="M385.45,293.2l-1.19-1.91.7-2-1.64-1.54.41-2.17-2-1.17.21-2.26-2.32-.71-.22-2.15-2.37-.34-.54-1.55-2.89-.32-.9-.82s-2.1.54-2.68.74a5,5,0,0,0-.62.27h0l-.35.2a4,4,0,0,1,.92-.38l2.44-.67.95.84,2.85.3.53,1.55,2.38.36.19,2.11,2.31.68-.18,2.31,2,1.13L383,287.8l1.64,1.54-.67,2,1.17,1.83L384,294.94l.55,1.21-1.49,1.51-.21.75.27-.15.12-.58,1.55-1.58-.52-1.21Z"/><path class="cls-8" d="M388.3,291.55l-1.18-1.91.7-2-1.64-1.54.41-2.17-2-1.17.2-2.26-2.31-.71-.22-2.15-2.37-.34-.54-1.56-2.9-.31-.89-.83s-2.11.56-2.69.75a5.63,5.63,0,0,0-.61.27h0l-.35.2a3.88,3.88,0,0,1,.91-.38l2.45-.67.95.84,2.84.3.53,1.55,2.4.36.18,2.1,2.3.69-.17,2.31,2,1.13-.41,2.13,1.64,1.54-.68,2,1.18,1.84-1.11,1.71.55,1.22L386,296l-.21.75.28-.15.1-.58,1.56-1.57-.52-1.22Z"/><path class="cls-8" d="M391.13,289.92,390,288l.68-2L389,284.44l.41-2.16-2-1.18.2-2.27-2.32-.7-.21-2.15-2.36-.34-.55-1.56-2.89-.32-.91-.82s-2.1.55-2.68.75a5.55,5.55,0,0,0-.62.27h0l-.34.19a4.34,4.34,0,0,1,.91-.37l2.44-.68.95.84,2.84.3.54,1.55,2.39.37.18,2.1,2.31.69-.17,2.3,2,1.14-.41,2.13,1.64,1.53-.68,2.05,1.18,1.83-1.11,1.72.54,1.21-1.49,1.52-.21.75.29-.16.09-.57,1.56-1.57-.52-1.22Z"/><path class="cls-9" d="M381,292.31c0,4-2.82,5.64-6.31,3.62A13.89,13.89,0,0,1,368.39,285c0-4,2.81-5.64,6.28-3.64A13.9,13.9,0,0,1,381,292.31Z"/><path class="cls-16" d="M380.17,291.84c0,3.51-2.46,4.94-5.5,3.18a12.16,12.16,0,0,1-5.49-9.52c0-3.51,2.46-4.93,5.49-3.18A12.16,12.16,0,0,1,380.17,291.84Z"/><path class="cls-17" d="M376.62,289.8c0,1.24-.86,1.74-1.95,1.12a4.32,4.32,0,0,1-1.93-3.37c0-1.24.87-1.74,1.93-1.12A4.25,4.25,0,0,1,376.62,289.8Z"/><path class="cls-14" d="M375.19,289c0,.33-.23.46-.52.29a1.15,1.15,0,0,1-.5-.88c0-.33.23-.46.5-.3A1.13,1.13,0,0,1,375.19,289Z"/><path class="cls-18" d="M375.89,288.49a.16.16,0,0,1-.09.13c-.14.09-.37-.05-.51-.29s-.14-.51,0-.59a.1.1,0,0,1,.09,0,.62.62,0,0,0,.1.45A.55.55,0,0,0,375.89,288.49Z"/><path class="cls-15" d="M375.89,288.49a.55.55,0,0,1-.41-.32.62.62,0,0,1-.1-.45.55.55,0,0,1,.42.32A.6.6,0,0,1,375.89,288.49Z"/><path class="cls-18" d="M375.88,290.48c0,.06-.05.11-.09.13s-.38-.05-.51-.29-.15-.51,0-.59a.11.11,0,0,1,.08,0,.63.63,0,0,0,.1.46A.53.53,0,0,0,375.88,290.48Z"/><path class="cls-15" d="M375.88,290.48a.53.53,0,0,1-.42-.32.63.63,0,0,1-.1-.46.64.64,0,0,1,.43.33A.71.71,0,0,1,375.88,290.48Z"/><path class="cls-18" d="M374.14,289.46a.21.21,0,0,1-.08.13c-.15.09-.39,0-.52-.29s-.15-.51,0-.59a.19.19,0,0,1,.1,0,.73.73,0,0,0,.08.46A.59.59,0,0,0,374.14,289.46Z"/><path class="cls-15" d="M374.14,289.46a.59.59,0,0,1-.42-.32.73.73,0,0,1-.08-.46.64.64,0,0,1,.42.32A.74.74,0,0,1,374.14,289.46Z"/><path class="cls-18" d="M374.16,287.48a.3.3,0,0,1-.09.13c-.14.08-.38-.05-.51-.3s-.15-.51,0-.6l.11,0a.63.63,0,0,0,.09.46A.58.58,0,0,0,374.16,287.48Z"/><path class="cls-15" d="M374.16,287.48a.58.58,0,0,1-.41-.33.63.63,0,0,1-.09-.46.59.59,0,0,1,.4.32A.62.62,0,0,1,374.16,287.48Z"/><path class="cls-14" d="M376.35,284.47c-.34.45-1,.53-1.68.12a4.42,4.42,0,0,1-1.92-3,4,4,0,0,1,.58.12,4.47,4.47,0,0,0,1.83,2.51A1.52,1.52,0,0,0,376.35,284.47Z"/><path class="cls-15" d="M376.6,283.84a1.27,1.27,0,0,1-.25.63,1.52,1.52,0,0,1-1.19-.22,4.47,4.47,0,0,1-1.83-2.51,5.72,5.72,0,0,1,1.34.58A9.49,9.49,0,0,1,376.6,283.84Z"/><path class="cls-14" d="M379,295.09a2.94,2.94,0,0,1-2.57.61c-.37-1.14-.19-2.16.53-2.42l.05,0a2.33,2.33,0,0,0-.09,2.1A3.13,3.13,0,0,0,379,295.09Z"/><path class="cls-15" d="M379.4,294.65a2.83,2.83,0,0,1-.4.44,3.13,3.13,0,0,1-2.08.27,2.33,2.33,0,0,1,.09-2.1C377.74,293,378.71,293.63,379.4,294.65Z"/><path class="cls-14" d="M380.17,291.84v.29a4.33,4.33,0,0,1-2.09-2.75c-.26-1.1,0-1.92.69-2.12a2.12,2.12,0,0,0-.2,1.78,4.55,4.55,0,0,0,1.59,2.46C380.17,291.61,380.17,291.73,380.17,291.84Z"/><path class="cls-15" d="M380.16,291.5a4.55,4.55,0,0,1-1.59-2.46,2.12,2.12,0,0,1,.2-1.78.73.73,0,0,1,.22,0A10.61,10.61,0,0,1,380.16,291.5Z"/><path class="cls-14" d="M373.16,293.08a2.22,2.22,0,0,1-.19.63,12.91,12.91,0,0,1-3-4.48,1.2,1.2,0,0,1,.6,0A13,13,0,0,0,373.16,293.08Z"/><path class="cls-15" d="M373.16,293.08a13,13,0,0,1-2.58-3.88,3.2,3.2,0,0,1,1.87,1.48A3.85,3.85,0,0,1,373.16,293.08Z"/><path class="cls-14" d="M371.14,285.83c-.4.54-1.17.52-1.95-.05a2.72,2.72,0,0,1,0-.28,4.21,4.21,0,0,1,1.21-3.27.35.35,0,0,1,.06.09,4.76,4.76,0,0,0-.78,2.83v.28A1.68,1.68,0,0,0,371.14,285.83Z"/><path class="cls-15" d="M371.33,285.47a2,2,0,0,1-.19.36,1.68,1.68,0,0,1-1.47-.4v-.28a4.76,4.76,0,0,1,.78-2.83A3.74,3.74,0,0,1,371.33,285.47Z"/><polygon class="cls-69" points="343.1 241.38 354.44 220.72 447.97 274.73 451.33 303.66 343.1 241.38"/><path class="cls-70" d="M343.09,241.38v29.94l21.71,12.52c.05-6.44,4.59-9,10.2-5.8s10.15,11.09,10.2,17.58l32.05,18.51c.05-6.44,4.59-9.05,10.2-5.81,5,2.88,9.11,9.38,10,15.34a13.68,13.68,0,0,1,.21,2.26l13.65,7.88V303.66Z"/><polygon class="cls-24" points="373.11 254.82 373.11 256.34 348.65 242.21 356.93 227.25 357.64 227.66 350.01 241.47 373.11 254.82"/><polygon class="cls-71" points="373.11 236.59 373.11 254.82 350.01 241.47 357.64 227.66 373.11 236.59"/><path class="cls-72" d="M367.17,258.16c0,.49,1.08,1.51,2.4,2.27s2.4,1,2.4.5-1.08-1.51-2.4-2.27S367.17,257.68,367.17,258.16Z"/><polygon class="cls-73" points="402.65 273.38 383.34 262.24 383.34 242.49 402.65 253.64 402.65 273.38"/><polygon class="cls-24" points="446.34 298.62 406.92 275.85 406.92 256.11 408.26 256.88 408.26 275.11 446.16 296.99 446.34 298.62"/><polygon class="cls-74" points="446.16 296.99 408.26 275.11 408.26 256.88 443.96 277.5 446.16 296.99"/><polygon class="cls-73" points="346.25 243.19 346.25 242.28 356.03 224.98 374.73 235.78 374.73 259.6 375.67 260.12 375.67 235.23 355.68 223.69 345.31 242.02 345.31 242.65 346.25 243.19"/><path class="cls-72" d="M374.73,259.6V274c-.2-.13-.39-.25-.59-.36a9.82,9.82,0,0,0-4.87-1.48c-3,0-5.19,1.94-5.93,5.22l-17.09-9.87v-24.3l-.94-.54V268L364,278.85l.11-.68c.51-3.23,2.38-5.09,5.13-5.09a9.09,9.09,0,0,1,4.4,1.35,13.39,13.39,0,0,1,1.25.82l.75.53V260.14Z"/><path class="cls-75" d="M348.66,243.09a1.17,1.17,0,0,0-.51-.9.37.37,0,0,0-.39,0l-2.66,1.5.7,1.28,2.72-1.53h0A.38.38,0,0,0,348.66,243.09Z"/><path class="cls-34" d="M346,244.62c0,.33-.23.46-.52.29a1.13,1.13,0,0,1-.51-.89c0-.33.23-.46.51-.3A1.15,1.15,0,0,1,346,244.62Z"/><polygon class="cls-67" points="345.99 232.66 340.39 235.91 339.41 235.34 345 232.1 345.99 232.66"/><polygon class="cls-68" points="340.39 249.94 339.41 249.38 339.41 235.34 340.39 235.91 340.39 249.94"/><polygon class="cls-66" points="345.99 246.7 340.39 249.94 340.39 235.91 345.99 232.66 345.99 246.7"/><polygon class="cls-7" points="345.51 233.74 345.51 246.35 340.87 249.03 340.87 248.5 345.03 246.09 345.03 234.01 345.51 233.74"/><polygon class="cls-76" points="345.03 234.01 345.03 246.09 340.87 248.5 340.87 236.42 345.03 234.01"/><polygon class="cls-77" points="496.83 246.52 403.29 192.51 354.44 220.72 447.97 274.73 496.83 246.52"/><polygon class="cls-73" points="500.19 275.45 451.33 303.66 447.97 274.73 496.83 246.52 500.19 275.45"/><polygon class="cls-24" points="497.3 275.43 453.88 300.5 453.67 298.75 495.6 274.54 492.81 250.58 494.31 249.71 497.3 275.43"/><polygon class="cls-78" points="495.6 274.54 453.67 298.75 450.88 274.79 492.81 250.58 495.6 274.54"/><polygon class="cls-79" points="493.51 269.65 476.65 259.91 491.45 251.36 493.51 269.65"/><polygon class="cls-72" points="500.19 305.59 451.33 333.8 451.33 303.66 500.19 275.45 500.19 305.59"/><polygon class="cls-80" points="460.01 314.71 458.78 314 455.69 315.79 456.92 316.5 460.01 314.71"/><polygon class="cls-45" points="455.69 315.79 456.92 316.5 456.92 320.04 455.69 319.33 455.69 315.79"/><polygon class="cls-52" points="460.01 318.25 456.92 320.04 456.92 316.5 460.01 314.71 460.01 318.25"/><polygon class="cls-80" points="460.01 310.58 458.78 309.88 455.69 311.66 456.92 312.37 460.01 310.58"/><polygon class="cls-45" points="455.69 311.66 456.92 312.37 456.92 315.91 455.69 315.2 455.69 311.66"/><polygon class="cls-52" points="460.01 314.12 456.92 315.91 456.92 312.37 460.01 310.58 460.01 314.12"/><polygon class="cls-80" points="460.01 306.45 458.78 305.74 455.69 307.53 456.92 308.24 460.01 306.45"/><polygon class="cls-45" points="455.69 307.53 456.92 308.24 456.92 311.78 455.69 311.07 455.69 307.53"/><polygon class="cls-52" points="460.01 309.99 456.92 311.78 456.92 308.24 460.01 306.45 460.01 309.99"/><polygon class="cls-80" points="497.24 293.3 496 292.59 492.92 294.37 494.14 295.08 497.24 293.3"/><polygon class="cls-45" points="492.92 294.37 494.14 295.08 494.14 298.62 492.92 297.92 492.92 294.37"/><polygon class="cls-52" points="497.24 296.83 494.14 298.62 494.14 295.08 497.24 293.3 497.24 296.83"/><polygon class="cls-80" points="497.24 289.17 496 288.46 492.92 290.25 494.14 290.95 497.24 289.17"/><polygon class="cls-45" points="492.92 290.25 494.14 290.95 494.14 294.49 492.92 293.78 492.92 290.25"/><polygon class="cls-52" points="497.24 292.71 494.14 294.49 494.14 290.95 497.24 289.17 497.24 292.71"/><polygon class="cls-80" points="497.24 285.04 496 284.33 492.92 286.11 494.14 286.82 497.24 285.04"/><polygon class="cls-45" points="492.92 286.11 494.14 286.82 494.14 290.36 492.92 289.65 492.92 286.11"/><polygon class="cls-52" points="497.24 288.58 494.14 290.36 494.14 286.82 497.24 285.04 497.24 288.58"/><polygon class="cls-70" points="485.92 295.08 485.92 304.3 469.62 313.71 469.62 312.75 485.21 303.75 485.21 295.5 485.92 295.08"/><polygon class="cls-81" points="485.21 295.5 485.21 303.75 469.62 312.75 469.62 304.49 485.21 295.5"/><polygon class="cls-66" points="502.24 300.31 453.38 328.54 453.38 334.99 502.24 306.76 502.24 300.31"/><polygon class="cls-67" points="500.19 299.13 451.33 327.35 453.38 328.54 502.24 300.31 500.19 299.13"/><polygon class="cls-68" points="453.38 334.99 451.33 333.8 451.33 327.35 453.38 328.54 453.38 334.99"/></g></g></svg>